<?xml version="1.0" encoding="utf-8" standalone="no"?>
<!DOCTYPE svg PUBLIC "-//W3C//DTD SVG 1.1//EN"
  "http://www.w3.org/Graphics/SVG/1.1/DTD/svg11.dtd">
<!-- Created with matplotlib (http://matplotlib.org/) -->
<svg height="341pt" version="1.1" viewBox="0 0 459 341" width="459pt" xmlns="http://www.w3.org/2000/svg" xmlns:xlink="http://www.w3.org/1999/xlink">
 <defs>
  <style type="text/css">
*{stroke-linecap:butt;stroke-linejoin:round;}
  </style>
 </defs>
 <g id="figure_1">
  <g id="patch_1">
   <path d="M 0 341.097552 
L 459.320616 341.097552 
L 459.320616 0 
L 0 0 
z
" style="fill:#ffffff;"/>
  </g>
  <g id="axes_1">
   <g id="patch_2">
    <path d="M 45.932062 306.987797 
L 436.354585 306.987797 
L 436.354585 17.054878 
L 45.932062 17.054878 
z
" style="fill:#ffffff;"/>
   </g>
   <g id="matplotlib.axis_1">
    <g id="xtick_1">
     <g id="line2d_1">
      <defs>
       <path d="M 0 0 
L 0 4 
" id="m1e5cb3a6d6" style="stroke:#000000;stroke-width:0.3;"/>
      </defs>
      <g>
       <use style="stroke:#000000;stroke-width:0.3;" x="45.932062" xlink:href="#m1e5cb3a6d6" y="306.987797"/>
      </g>
     </g>
     <g id="text_1">
      <!-- 0 -->
      <defs>
       <path d="M 4.15625 35.296875 
Q 4.15625 48 6.765625 55.734375 
Q 9.375 63.484375 14.515625 67.671875 
Q 19.671875 71.875 27.484375 71.875 
Q 33.25 71.875 37.59375 69.546875 
Q 41.9375 67.234375 44.765625 62.859375 
Q 47.609375 58.5 49.21875 52.21875 
Q 50.828125 45.953125 50.828125 35.296875 
Q 50.828125 22.703125 48.234375 14.96875 
Q 45.65625 7.234375 40.5 3 
Q 35.359375 -1.21875 27.484375 -1.21875 
Q 17.140625 -1.21875 11.234375 6.203125 
Q 4.15625 15.140625 4.15625 35.296875 
z
M 13.1875 35.296875 
Q 13.1875 17.671875 17.3125 11.828125 
Q 21.4375 6 27.484375 6 
Q 33.546875 6 37.671875 11.859375 
Q 41.796875 17.71875 41.796875 35.296875 
Q 41.796875 52.984375 37.671875 58.78125 
Q 33.546875 64.59375 27.390625 64.59375 
Q 21.34375 64.59375 17.71875 59.46875 
Q 13.1875 52.9375 13.1875 35.296875 
z
" id="ArialMT-30"/>
      </defs>
      <g transform="translate(44.002416 319.455319)scale(0.0694 -0.0694)">
       <use xlink:href="#ArialMT-30"/>
      </g>
     </g>
    </g>
    <g id="xtick_2">
     <g id="line2d_2">
      <g>
       <use style="stroke:#000000;stroke-width:0.3;" x="105.997065" xlink:href="#m1e5cb3a6d6" y="306.987797"/>
      </g>
     </g>
     <g id="text_2">
      <!-- 100 -->
      <defs>
       <path d="M 37.25 0 
L 28.46875 0 
L 28.46875 56 
Q 25.296875 52.984375 20.140625 49.953125 
Q 14.984375 46.921875 10.890625 45.40625 
L 10.890625 53.90625 
Q 18.265625 57.375 23.78125 62.296875 
Q 29.296875 67.234375 31.59375 71.875 
L 37.25 71.875 
z
" id="ArialMT-31"/>
      </defs>
      <g transform="translate(100.208129 319.455319)scale(0.0694 -0.0694)">
       <use xlink:href="#ArialMT-31"/>
       <use x="55.615234" xlink:href="#ArialMT-30"/>
       <use x="111.230469" xlink:href="#ArialMT-30"/>
      </g>
     </g>
    </g>
    <g id="xtick_3">
     <g id="line2d_3">
      <g>
       <use style="stroke:#000000;stroke-width:0.3;" x="166.062069" xlink:href="#m1e5cb3a6d6" y="306.987797"/>
      </g>
     </g>
     <g id="text_3">
      <!-- 200 -->
      <defs>
       <path d="M 50.34375 8.453125 
L 50.34375 0 
L 3.03125 0 
Q 2.9375 3.171875 4.046875 6.109375 
Q 5.859375 10.9375 9.828125 15.625 
Q 13.8125 20.3125 21.34375 26.46875 
Q 33.015625 36.03125 37.109375 41.625 
Q 41.21875 47.21875 41.21875 52.203125 
Q 41.21875 57.421875 37.46875 61 
Q 33.734375 64.59375 27.734375 64.59375 
Q 21.390625 64.59375 17.578125 60.78125 
Q 13.765625 56.984375 13.71875 50.25 
L 4.6875 51.171875 
Q 5.609375 61.28125 11.65625 66.578125 
Q 17.71875 71.875 27.9375 71.875 
Q 38.234375 71.875 44.234375 66.15625 
Q 50.25 60.453125 50.25 52 
Q 50.25 47.703125 48.484375 43.546875 
Q 46.734375 39.40625 42.65625 34.8125 
Q 38.578125 30.21875 29.109375 22.21875 
Q 21.1875 15.578125 18.9375 13.203125 
Q 16.703125 10.84375 15.234375 8.453125 
z
" id="ArialMT-32"/>
      </defs>
      <g transform="translate(160.273133 319.455319)scale(0.0694 -0.0694)">
       <use xlink:href="#ArialMT-32"/>
       <use x="55.615234" xlink:href="#ArialMT-30"/>
       <use x="111.230469" xlink:href="#ArialMT-30"/>
      </g>
     </g>
    </g>
    <g id="xtick_4">
     <g id="line2d_4">
      <g>
       <use style="stroke:#000000;stroke-width:0.3;" x="226.127072" xlink:href="#m1e5cb3a6d6" y="306.987797"/>
      </g>
     </g>
     <g id="text_4">
      <!-- 300 -->
      <defs>
       <path d="M 4.203125 18.890625 
L 12.984375 20.0625 
Q 14.5 12.59375 18.140625 9.296875 
Q 21.78125 6 27 6 
Q 33.203125 6 37.46875 10.296875 
Q 41.75 14.59375 41.75 20.953125 
Q 41.75 27 37.796875 30.921875 
Q 33.84375 34.859375 27.734375 34.859375 
Q 25.25 34.859375 21.53125 33.890625 
L 22.515625 41.609375 
Q 23.390625 41.5 23.921875 41.5 
Q 29.546875 41.5 34.03125 44.421875 
Q 38.53125 47.359375 38.53125 53.46875 
Q 38.53125 58.296875 35.25 61.46875 
Q 31.984375 64.65625 26.8125 64.65625 
Q 21.6875 64.65625 18.265625 61.421875 
Q 14.84375 58.203125 13.875 51.765625 
L 5.078125 53.328125 
Q 6.6875 62.15625 12.390625 67.015625 
Q 18.109375 71.875 26.609375 71.875 
Q 32.46875 71.875 37.390625 69.359375 
Q 42.328125 66.84375 44.9375 62.5 
Q 47.5625 58.15625 47.5625 53.265625 
Q 47.5625 48.640625 45.0625 44.828125 
Q 42.578125 41.015625 37.703125 38.765625 
Q 44.046875 37.3125 47.5625 32.6875 
Q 51.078125 28.078125 51.078125 21.140625 
Q 51.078125 11.765625 44.234375 5.25 
Q 37.40625 -1.265625 26.953125 -1.265625 
Q 17.53125 -1.265625 11.296875 4.34375 
Q 5.078125 9.96875 4.203125 18.890625 
z
" id="ArialMT-33"/>
      </defs>
      <g transform="translate(220.338137 319.455319)scale(0.0694 -0.0694)">
       <use xlink:href="#ArialMT-33"/>
       <use x="55.615234" xlink:href="#ArialMT-30"/>
       <use x="111.230469" xlink:href="#ArialMT-30"/>
      </g>
     </g>
    </g>
    <g id="xtick_5">
     <g id="line2d_5">
      <g>
       <use style="stroke:#000000;stroke-width:0.3;" x="286.192076" xlink:href="#m1e5cb3a6d6" y="306.987797"/>
      </g>
     </g>
     <g id="text_5">
      <!-- 400 -->
      <defs>
       <path d="M 32.328125 0 
L 32.328125 17.140625 
L 1.265625 17.140625 
L 1.265625 25.203125 
L 33.9375 71.578125 
L 41.109375 71.578125 
L 41.109375 25.203125 
L 50.78125 25.203125 
L 50.78125 17.140625 
L 41.109375 17.140625 
L 41.109375 0 
z
M 32.328125 25.203125 
L 32.328125 57.46875 
L 9.90625 25.203125 
z
" id="ArialMT-34"/>
      </defs>
      <g transform="translate(280.40314 319.455319)scale(0.0694 -0.0694)">
       <use xlink:href="#ArialMT-34"/>
       <use x="55.615234" xlink:href="#ArialMT-30"/>
       <use x="111.230469" xlink:href="#ArialMT-30"/>
      </g>
     </g>
    </g>
    <g id="xtick_6">
     <g id="line2d_6">
      <g>
       <use style="stroke:#000000;stroke-width:0.3;" x="346.25708" xlink:href="#m1e5cb3a6d6" y="306.987797"/>
      </g>
     </g>
     <g id="text_6">
      <!-- 500 -->
      <defs>
       <path d="M 4.15625 18.75 
L 13.375 19.53125 
Q 14.40625 12.796875 18.140625 9.390625 
Q 21.875 6 27.15625 6 
Q 33.5 6 37.890625 10.78125 
Q 42.28125 15.578125 42.28125 23.484375 
Q 42.28125 31 38.0625 35.34375 
Q 33.84375 39.703125 27 39.703125 
Q 22.75 39.703125 19.328125 37.765625 
Q 15.921875 35.84375 13.96875 32.765625 
L 5.71875 33.84375 
L 12.640625 70.609375 
L 48.25 70.609375 
L 48.25 62.203125 
L 19.671875 62.203125 
L 15.828125 42.96875 
Q 22.265625 47.46875 29.34375 47.46875 
Q 38.71875 47.46875 45.15625 40.96875 
Q 51.609375 34.46875 51.609375 24.265625 
Q 51.609375 14.546875 45.953125 7.46875 
Q 39.0625 -1.21875 27.15625 -1.21875 
Q 17.390625 -1.21875 11.203125 4.25 
Q 5.03125 9.71875 4.15625 18.75 
z
" id="ArialMT-35"/>
      </defs>
      <g transform="translate(340.468144 319.455319)scale(0.0694 -0.0694)">
       <use xlink:href="#ArialMT-35"/>
       <use x="55.615234" xlink:href="#ArialMT-30"/>
       <use x="111.230469" xlink:href="#ArialMT-30"/>
      </g>
     </g>
    </g>
    <g id="xtick_7">
     <g id="line2d_7">
      <g>
       <use style="stroke:#000000;stroke-width:0.3;" x="406.322083" xlink:href="#m1e5cb3a6d6" y="306.987797"/>
      </g>
     </g>
     <g id="text_7">
      <!-- 600 -->
      <defs>
       <path d="M 49.75 54.046875 
L 41.015625 53.375 
Q 39.84375 58.546875 37.703125 60.890625 
Q 34.125 64.65625 28.90625 64.65625 
Q 24.703125 64.65625 21.53125 62.3125 
Q 17.390625 59.28125 14.984375 53.46875 
Q 12.59375 47.65625 12.5 36.921875 
Q 15.671875 41.75 20.265625 44.09375 
Q 24.859375 46.4375 29.890625 46.4375 
Q 38.671875 46.4375 44.84375 39.96875 
Q 51.03125 33.5 51.03125 23.25 
Q 51.03125 16.5 48.125 10.71875 
Q 45.21875 4.9375 40.140625 1.859375 
Q 35.0625 -1.21875 28.609375 -1.21875 
Q 17.625 -1.21875 10.6875 6.859375 
Q 3.765625 14.9375 3.765625 33.5 
Q 3.765625 54.25 11.421875 63.671875 
Q 18.109375 71.875 29.4375 71.875 
Q 37.890625 71.875 43.28125 67.140625 
Q 48.6875 62.40625 49.75 54.046875 
z
M 13.875 23.1875 
Q 13.875 18.65625 15.796875 14.5 
Q 17.71875 10.359375 21.1875 8.171875 
Q 24.65625 6 28.46875 6 
Q 34.03125 6 38.03125 10.484375 
Q 42.046875 14.984375 42.046875 22.703125 
Q 42.046875 30.125 38.078125 34.390625 
Q 34.125 38.671875 28.125 38.671875 
Q 22.171875 38.671875 18.015625 34.390625 
Q 13.875 30.125 13.875 23.1875 
z
" id="ArialMT-36"/>
      </defs>
      <g transform="translate(400.533147 319.455319)scale(0.0694 -0.0694)">
       <use xlink:href="#ArialMT-36"/>
       <use x="55.615234" xlink:href="#ArialMT-30"/>
       <use x="111.230469" xlink:href="#ArialMT-30"/>
      </g>
     </g>
    </g>
    <g id="xtick_8">
     <g id="line2d_8">
      <defs>
       <path d="M 0 0 
L 0 2 
" id="mfc9bfd9249" style="stroke:#000000;stroke-width:0.3;"/>
      </defs>
      <g>
       <use style="stroke:#000000;stroke-width:0.3;" x="45.932062" xlink:href="#mfc9bfd9249" y="306.987797"/>
      </g>
     </g>
    </g>
    <g id="xtick_9">
     <g id="line2d_9">
      <g>
       <use style="stroke:#000000;stroke-width:0.3;" x="60.948313" xlink:href="#mfc9bfd9249" y="306.987797"/>
      </g>
     </g>
    </g>
    <g id="xtick_10">
     <g id="line2d_10">
      <g>
       <use style="stroke:#000000;stroke-width:0.3;" x="75.964563" xlink:href="#mfc9bfd9249" y="306.987797"/>
      </g>
     </g>
    </g>
    <g id="xtick_11">
     <g id="line2d_11">
      <g>
       <use style="stroke:#000000;stroke-width:0.3;" x="90.980814" xlink:href="#mfc9bfd9249" y="306.987797"/>
      </g>
     </g>
    </g>
    <g id="xtick_12">
     <g id="line2d_12">
      <g>
       <use style="stroke:#000000;stroke-width:0.3;" x="105.997065" xlink:href="#mfc9bfd9249" y="306.987797"/>
      </g>
     </g>
    </g>
    <g id="xtick_13">
     <g id="line2d_13">
      <g>
       <use style="stroke:#000000;stroke-width:0.3;" x="121.013316" xlink:href="#mfc9bfd9249" y="306.987797"/>
      </g>
     </g>
    </g>
    <g id="xtick_14">
     <g id="line2d_14">
      <g>
       <use style="stroke:#000000;stroke-width:0.3;" x="136.029567" xlink:href="#mfc9bfd9249" y="306.987797"/>
      </g>
     </g>
    </g>
    <g id="xtick_15">
     <g id="line2d_15">
      <g>
       <use style="stroke:#000000;stroke-width:0.3;" x="151.045818" xlink:href="#mfc9bfd9249" y="306.987797"/>
      </g>
     </g>
    </g>
    <g id="xtick_16">
     <g id="line2d_16">
      <g>
       <use style="stroke:#000000;stroke-width:0.3;" x="166.062069" xlink:href="#mfc9bfd9249" y="306.987797"/>
      </g>
     </g>
    </g>
    <g id="xtick_17">
     <g id="line2d_17">
      <g>
       <use style="stroke:#000000;stroke-width:0.3;" x="181.07832" xlink:href="#mfc9bfd9249" y="306.987797"/>
      </g>
     </g>
    </g>
    <g id="xtick_18">
     <g id="line2d_18">
      <g>
       <use style="stroke:#000000;stroke-width:0.3;" x="196.094571" xlink:href="#mfc9bfd9249" y="306.987797"/>
      </g>
     </g>
    </g>
    <g id="xtick_19">
     <g id="line2d_19">
      <g>
       <use style="stroke:#000000;stroke-width:0.3;" x="211.110822" xlink:href="#mfc9bfd9249" y="306.987797"/>
      </g>
     </g>
    </g>
    <g id="xtick_20">
     <g id="line2d_20">
      <g>
       <use style="stroke:#000000;stroke-width:0.3;" x="226.127072" xlink:href="#mfc9bfd9249" y="306.987797"/>
      </g>
     </g>
    </g>
    <g id="xtick_21">
     <g id="line2d_21">
      <g>
       <use style="stroke:#000000;stroke-width:0.3;" x="241.143323" xlink:href="#mfc9bfd9249" y="306.987797"/>
      </g>
     </g>
    </g>
    <g id="xtick_22">
     <g id="line2d_22">
      <g>
       <use style="stroke:#000000;stroke-width:0.3;" x="256.159574" xlink:href="#mfc9bfd9249" y="306.987797"/>
      </g>
     </g>
    </g>
    <g id="xtick_23">
     <g id="line2d_23">
      <g>
       <use style="stroke:#000000;stroke-width:0.3;" x="271.175825" xlink:href="#mfc9bfd9249" y="306.987797"/>
      </g>
     </g>
    </g>
    <g id="xtick_24">
     <g id="line2d_24">
      <g>
       <use style="stroke:#000000;stroke-width:0.3;" x="286.192076" xlink:href="#mfc9bfd9249" y="306.987797"/>
      </g>
     </g>
    </g>
    <g id="xtick_25">
     <g id="line2d_25">
      <g>
       <use style="stroke:#000000;stroke-width:0.3;" x="301.208327" xlink:href="#mfc9bfd9249" y="306.987797"/>
      </g>
     </g>
    </g>
    <g id="xtick_26">
     <g id="line2d_26">
      <g>
       <use style="stroke:#000000;stroke-width:0.3;" x="316.224578" xlink:href="#mfc9bfd9249" y="306.987797"/>
      </g>
     </g>
    </g>
    <g id="xtick_27">
     <g id="line2d_27">
      <g>
       <use style="stroke:#000000;stroke-width:0.3;" x="331.240829" xlink:href="#mfc9bfd9249" y="306.987797"/>
      </g>
     </g>
    </g>
    <g id="xtick_28">
     <g id="line2d_28">
      <g>
       <use style="stroke:#000000;stroke-width:0.3;" x="346.25708" xlink:href="#mfc9bfd9249" y="306.987797"/>
      </g>
     </g>
    </g>
    <g id="xtick_29">
     <g id="line2d_29">
      <g>
       <use style="stroke:#000000;stroke-width:0.3;" x="361.273331" xlink:href="#mfc9bfd9249" y="306.987797"/>
      </g>
     </g>
    </g>
    <g id="xtick_30">
     <g id="line2d_30">
      <g>
       <use style="stroke:#000000;stroke-width:0.3;" x="376.289582" xlink:href="#mfc9bfd9249" y="306.987797"/>
      </g>
     </g>
    </g>
    <g id="xtick_31">
     <g id="line2d_31">
      <g>
       <use style="stroke:#000000;stroke-width:0.3;" x="391.305832" xlink:href="#mfc9bfd9249" y="306.987797"/>
      </g>
     </g>
    </g>
    <g id="xtick_32">
     <g id="line2d_32">
      <g>
       <use style="stroke:#000000;stroke-width:0.3;" x="406.322083" xlink:href="#mfc9bfd9249" y="306.987797"/>
      </g>
     </g>
    </g>
    <g id="xtick_33">
     <g id="line2d_33">
      <g>
       <use style="stroke:#000000;stroke-width:0.3;" x="421.338334" xlink:href="#mfc9bfd9249" y="306.987797"/>
      </g>
     </g>
    </g>
    <g id="xtick_34">
     <g id="line2d_34">
      <g>
       <use style="stroke:#000000;stroke-width:0.3;" x="436.354585" xlink:href="#mfc9bfd9249" y="306.987797"/>
      </g>
     </g>
    </g>
    <g id="text_8">
     <!-- Parcel size [Acres] -->
     <defs>
      <path d="M 7.28125 0 
L 7.28125 71.578125 
L 30.46875 71.578125 
Q 43.65625 71.578125 47.65625 70.515625 
Q 53.8125 68.890625 57.953125 63.5 
Q 62.109375 58.109375 62.109375 49.5625 
Q 62.109375 42.96875 59.71875 38.46875 
Q 57.328125 33.984375 53.640625 31.421875 
Q 49.953125 28.859375 46.140625 28.03125 
Q 40.96875 27 31.15625 27 
L 21.734375 27 
L 21.734375 0 
z
M 21.734375 59.46875 
L 21.734375 39.15625 
L 29.640625 39.15625 
Q 38.1875 39.15625 41.0625 40.28125 
Q 43.953125 41.40625 45.578125 43.796875 
Q 47.21875 46.1875 47.21875 49.359375 
Q 47.21875 53.265625 44.921875 55.796875 
Q 42.625 58.34375 39.109375 58.984375 
Q 36.53125 59.46875 28.71875 59.46875 
z
" id="Arial-BoldMT-50"/>
      <path d="M 17.4375 36.03125 
L 4.984375 38.28125 
Q 7.078125 45.796875 12.203125 49.40625 
Q 17.328125 53.03125 27.4375 53.03125 
Q 36.625 53.03125 41.109375 50.859375 
Q 45.609375 48.6875 47.4375 45.34375 
Q 49.265625 42 49.265625 33.0625 
L 49.125 17.046875 
Q 49.125 10.203125 49.78125 6.953125 
Q 50.4375 3.71875 52.25 0 
L 38.671875 0 
Q 38.140625 1.375 37.359375 4.046875 
Q 37.015625 5.28125 36.859375 5.671875 
Q 33.34375 2.25 29.34375 0.53125 
Q 25.34375 -1.171875 20.796875 -1.171875 
Q 12.796875 -1.171875 8.171875 3.171875 
Q 3.5625 7.515625 3.5625 14.15625 
Q 3.5625 18.5625 5.65625 22 
Q 7.765625 25.4375 11.546875 27.265625 
Q 15.328125 29.109375 22.46875 30.46875 
Q 32.078125 32.28125 35.796875 33.84375 
L 35.796875 35.203125 
Q 35.796875 39.15625 33.84375 40.84375 
Q 31.890625 42.53125 26.46875 42.53125 
Q 22.796875 42.53125 20.75 41.09375 
Q 18.703125 39.65625 17.4375 36.03125 
z
M 35.796875 24.90625 
Q 33.15625 24.03125 27.4375 22.796875 
Q 21.734375 21.578125 19.96875 20.40625 
Q 17.28125 18.5 17.28125 15.578125 
Q 17.28125 12.703125 19.421875 10.59375 
Q 21.578125 8.5 24.90625 8.5 
Q 28.609375 8.5 31.984375 10.9375 
Q 34.46875 12.796875 35.25 15.484375 
Q 35.796875 17.234375 35.796875 22.171875 
z
" id="Arial-BoldMT-61"/>
      <path d="M 20.3125 0 
L 6.59375 0 
L 6.59375 51.859375 
L 19.34375 51.859375 
L 19.34375 44.484375 
Q 22.609375 49.703125 25.21875 51.359375 
Q 27.828125 53.03125 31.15625 53.03125 
Q 35.84375 53.03125 40.1875 50.4375 
L 35.9375 38.484375 
Q 32.46875 40.71875 29.5 40.71875 
Q 26.609375 40.71875 24.609375 39.125 
Q 22.609375 37.546875 21.453125 33.390625 
Q 20.3125 29.25 20.3125 16.015625 
z
" id="Arial-BoldMT-72"/>
      <path d="M 52.390625 36.53125 
L 38.875 34.078125 
Q 38.1875 38.140625 35.765625 40.1875 
Q 33.34375 42.234375 29.5 42.234375 
Q 24.359375 42.234375 21.3125 38.6875 
Q 18.265625 35.15625 18.265625 26.859375 
Q 18.265625 17.625 21.359375 13.8125 
Q 24.46875 10.015625 29.6875 10.015625 
Q 33.59375 10.015625 36.078125 12.234375 
Q 38.578125 14.453125 39.59375 19.875 
L 53.078125 17.578125 
Q 50.984375 8.296875 45.015625 3.5625 
Q 39.0625 -1.171875 29.046875 -1.171875 
Q 17.671875 -1.171875 10.90625 6 
Q 4.15625 13.1875 4.15625 25.875 
Q 4.15625 38.71875 10.9375 45.875 
Q 17.71875 53.03125 29.296875 53.03125 
Q 38.765625 53.03125 44.359375 48.953125 
Q 49.953125 44.875 52.390625 36.53125 
z
" id="Arial-BoldMT-63"/>
      <path d="M 37.203125 16.5 
L 50.875 14.203125 
Q 48.25 6.6875 42.546875 2.75 
Q 36.859375 -1.171875 28.328125 -1.171875 
Q 14.796875 -1.171875 8.296875 7.671875 
Q 3.171875 14.75 3.171875 25.53125 
Q 3.171875 38.421875 9.90625 45.71875 
Q 16.65625 53.03125 26.953125 53.03125 
Q 38.53125 53.03125 45.21875 45.390625 
Q 51.90625 37.75 51.609375 21.96875 
L 17.234375 21.96875 
Q 17.390625 15.875 20.5625 12.46875 
Q 23.734375 9.078125 28.46875 9.078125 
Q 31.6875 9.078125 33.875 10.828125 
Q 36.078125 12.59375 37.203125 16.5 
z
M 37.984375 30.375 
Q 37.84375 36.328125 34.90625 39.421875 
Q 31.984375 42.53125 27.78125 42.53125 
Q 23.296875 42.53125 20.359375 39.265625 
Q 17.4375 35.984375 17.484375 30.375 
z
" id="Arial-BoldMT-65"/>
      <path d="M 7.171875 0 
L 7.171875 71.578125 
L 20.90625 71.578125 
L 20.90625 0 
z
" id="Arial-BoldMT-6c"/>
      <path id="Arial-BoldMT-20"/>
      <path d="M 2.34375 14.796875 
L 16.109375 16.890625 
Q 17 12.890625 19.671875 10.8125 
Q 22.359375 8.734375 27.203125 8.734375 
Q 32.515625 8.734375 35.203125 10.6875 
Q 37.015625 12.0625 37.015625 14.359375 
Q 37.015625 15.921875 36.03125 16.9375 
Q 35.015625 17.921875 31.453125 18.75 
Q 14.84375 22.40625 10.40625 25.4375 
Q 4.25 29.640625 4.25 37.109375 
Q 4.25 43.84375 9.5625 48.4375 
Q 14.890625 53.03125 26.078125 53.03125 
Q 36.71875 53.03125 41.890625 49.5625 
Q 47.078125 46.09375 49.03125 39.3125 
L 36.078125 36.921875 
Q 35.25 39.9375 32.921875 41.546875 
Q 30.609375 43.171875 26.3125 43.171875 
Q 20.90625 43.171875 18.5625 41.65625 
Q 17 40.578125 17 38.875 
Q 17 37.40625 18.359375 36.375 
Q 20.21875 35.015625 31.171875 32.515625 
Q 42.140625 30.03125 46.484375 26.421875 
Q 50.78125 22.75 50.78125 16.21875 
Q 50.78125 9.078125 44.828125 3.953125 
Q 38.875 -1.171875 27.203125 -1.171875 
Q 16.609375 -1.171875 10.421875 3.125 
Q 4.25 7.421875 2.34375 14.796875 
z
" id="Arial-BoldMT-73"/>
      <path d="M 7.171875 58.890625 
L 7.171875 71.578125 
L 20.90625 71.578125 
L 20.90625 58.890625 
z
M 7.171875 0 
L 7.171875 51.859375 
L 20.90625 51.859375 
L 20.90625 0 
z
" id="Arial-BoldMT-69"/>
      <path d="M 1.65625 0 
L 1.65625 10.6875 
L 21.09375 33.015625 
Q 25.875 38.484375 28.171875 40.765625 
Q 25.78125 40.625 21.875 40.578125 
L 3.5625 40.484375 
L 3.5625 51.859375 
L 46.4375 51.859375 
L 46.4375 42.140625 
L 26.609375 19.28125 
L 19.625 11.71875 
Q 25.34375 12.0625 26.703125 12.0625 
L 47.953125 12.0625 
L 47.953125 0 
z
" id="Arial-BoldMT-7a"/>
      <path d="M 7.125 -20.171875 
L 7.125 71.578125 
L 31.453125 71.578125 
L 31.453125 60.796875 
L 20.171875 60.796875 
L 20.171875 -9.375 
L 31.453125 -9.375 
L 31.453125 -20.171875 
z
" id="Arial-BoldMT-5b"/>
      <path d="M 71.828125 0 
L 56.109375 0 
L 49.859375 16.265625 
L 21.234375 16.265625 
L 15.328125 0 
L 0 0 
L 27.875 71.578125 
L 43.171875 71.578125 
z
M 45.21875 28.328125 
L 35.359375 54.890625 
L 25.6875 28.328125 
z
" id="Arial-BoldMT-41"/>
      <path d="M 26.171875 71.578125 
L 26.171875 -20.171875 
L 1.859375 -20.171875 
L 1.859375 -9.375 
L 13.140625 -9.375 
L 13.140625 60.890625 
L 1.859375 60.890625 
L 1.859375 71.578125 
z
" id="Arial-BoldMT-5d"/>
     </defs>
     <g transform="translate(196.675355 333.992456)scale(0.1 -0.1)">
      <use xlink:href="#Arial-BoldMT-50"/>
      <use x="66.699219" xlink:href="#Arial-BoldMT-61"/>
      <use x="122.314453" xlink:href="#Arial-BoldMT-72"/>
      <use x="161.230469" xlink:href="#Arial-BoldMT-63"/>
      <use x="216.845703" xlink:href="#Arial-BoldMT-65"/>
      <use x="272.460938" xlink:href="#Arial-BoldMT-6c"/>
      <use x="300.244141" xlink:href="#Arial-BoldMT-20"/>
      <use x="328.027344" xlink:href="#Arial-BoldMT-73"/>
      <use x="383.642578" xlink:href="#Arial-BoldMT-69"/>
      <use x="411.425781" xlink:href="#Arial-BoldMT-7a"/>
      <use x="461.425781" xlink:href="#Arial-BoldMT-65"/>
      <use x="517.041016" xlink:href="#Arial-BoldMT-20"/>
      <use x="544.824219" xlink:href="#Arial-BoldMT-5b"/>
      <use x="578.125" xlink:href="#Arial-BoldMT-41"/>
      <use x="650.341797" xlink:href="#Arial-BoldMT-63"/>
      <use x="705.957031" xlink:href="#Arial-BoldMT-72"/>
      <use x="744.873047" xlink:href="#Arial-BoldMT-65"/>
      <use x="800.488281" xlink:href="#Arial-BoldMT-73"/>
      <use x="856.103516" xlink:href="#Arial-BoldMT-5d"/>
     </g>
    </g>
   </g>
   <g id="matplotlib.axis_2">
    <g id="ytick_1">
     <g id="line2d_35">
      <defs>
       <path d="M 0 0 
L -3.5 0 
" id="mf57afa5679" style="stroke:#000000;stroke-width:0.7;"/>
      </defs>
      <g>
       <use style="stroke:#000000;stroke-width:0.7;" x="45.932062" xlink:href="#mf57afa5679" y="306.987797"/>
      </g>
     </g>
     <g id="text_9">
      <!-- 0 -->
      <g transform="translate(35.072771 309.471558)scale(0.0694 -0.0694)">
       <use xlink:href="#ArialMT-30"/>
      </g>
     </g>
    </g>
    <g id="ytick_2">
     <g id="line2d_36">
      <g>
       <use style="stroke:#000000;stroke-width:0.7;" x="45.932062" xlink:href="#mf57afa5679" y="234.504567"/>
      </g>
     </g>
     <g id="text_10">
      <!-- 5.000 -->
      <defs>
       <path d="M 9.078125 0 
L 9.078125 10.015625 
L 19.09375 10.015625 
L 19.09375 0 
z
" id="ArialMT-2e"/>
      </defs>
      <g transform="translate(21.56688 236.988328)scale(0.0694 -0.0694)">
       <use xlink:href="#ArialMT-35"/>
       <use x="55.615234" xlink:href="#ArialMT-2e"/>
       <use x="83.398438" xlink:href="#ArialMT-30"/>
       <use x="139.013672" xlink:href="#ArialMT-30"/>
       <use x="194.628906" xlink:href="#ArialMT-30"/>
      </g>
     </g>
    </g>
    <g id="ytick_3">
     <g id="line2d_37">
      <g>
       <use style="stroke:#000000;stroke-width:0.7;" x="45.932062" xlink:href="#mf57afa5679" y="162.021337"/>
      </g>
     </g>
     <g id="text_11">
      <!-- 10.000 -->
      <g transform="translate(17.70759 164.505098)scale(0.0694 -0.0694)">
       <use xlink:href="#ArialMT-31"/>
       <use x="55.615234" xlink:href="#ArialMT-30"/>
       <use x="111.230469" xlink:href="#ArialMT-2e"/>
       <use x="139.013672" xlink:href="#ArialMT-30"/>
       <use x="194.628906" xlink:href="#ArialMT-30"/>
       <use x="250.244141" xlink:href="#ArialMT-30"/>
      </g>
     </g>
    </g>
    <g id="ytick_4">
     <g id="line2d_38">
      <g>
       <use style="stroke:#000000;stroke-width:0.7;" x="45.932062" xlink:href="#mf57afa5679" y="89.538107"/>
      </g>
     </g>
     <g id="text_12">
      <!-- 15.000 -->
      <g transform="translate(17.70759 92.021868)scale(0.0694 -0.0694)">
       <use xlink:href="#ArialMT-31"/>
       <use x="55.615234" xlink:href="#ArialMT-35"/>
       <use x="111.230469" xlink:href="#ArialMT-2e"/>
       <use x="139.013672" xlink:href="#ArialMT-30"/>
       <use x="194.628906" xlink:href="#ArialMT-30"/>
       <use x="250.244141" xlink:href="#ArialMT-30"/>
      </g>
     </g>
    </g>
    <g id="ytick_5">
     <g id="line2d_39">
      <g>
       <use style="stroke:#000000;stroke-width:0.7;" x="45.932062" xlink:href="#mf57afa5679" y="17.054878"/>
      </g>
     </g>
     <g id="text_13">
      <!-- 20.000 -->
      <g transform="translate(17.70759 19.538639)scale(0.0694 -0.0694)">
       <use xlink:href="#ArialMT-32"/>
       <use x="55.615234" xlink:href="#ArialMT-30"/>
       <use x="111.230469" xlink:href="#ArialMT-2e"/>
       <use x="139.013672" xlink:href="#ArialMT-30"/>
       <use x="194.628906" xlink:href="#ArialMT-30"/>
       <use x="250.244141" xlink:href="#ArialMT-30"/>
      </g>
     </g>
    </g>
    <g id="ytick_6">
     <g id="line2d_40">
      <path clip-path="url(#pd3b2087e16)" d="M 45.932062 306.987797 
L 436.354585 306.987797 
" style="fill:none;stroke:#d4cdcd;stroke-linecap:square;stroke-width:0.3;"/>
     </g>
     <g id="line2d_41">
      <defs>
       <path d="M 0 0 
L -2 0 
" id="mace06364c3" style="stroke:#000000;stroke-width:0.6;"/>
      </defs>
      <g>
       <use style="stroke:#000000;stroke-width:0.6;" x="45.932062" xlink:href="#mace06364c3" y="306.987797"/>
      </g>
     </g>
    </g>
    <g id="ytick_7">
     <g id="line2d_42">
      <path clip-path="url(#pd3b2087e16)" d="M 45.932062 292.491151 
L 436.354585 292.491151 
" style="fill:none;stroke:#d4cdcd;stroke-linecap:square;stroke-width:0.3;"/>
     </g>
     <g id="line2d_43">
      <g>
       <use style="stroke:#000000;stroke-width:0.6;" x="45.932062" xlink:href="#mace06364c3" y="292.491151"/>
      </g>
     </g>
    </g>
    <g id="ytick_8">
     <g id="line2d_44">
      <path clip-path="url(#pd3b2087e16)" d="M 45.932062 277.994505 
L 436.354585 277.994505 
" style="fill:none;stroke:#d4cdcd;stroke-linecap:square;stroke-width:0.3;"/>
     </g>
     <g id="line2d_45">
      <g>
       <use style="stroke:#000000;stroke-width:0.6;" x="45.932062" xlink:href="#mace06364c3" y="277.994505"/>
      </g>
     </g>
    </g>
    <g id="ytick_9">
     <g id="line2d_46">
      <path clip-path="url(#pd3b2087e16)" d="M 45.932062 263.497859 
L 436.354585 263.497859 
" style="fill:none;stroke:#d4cdcd;stroke-linecap:square;stroke-width:0.3;"/>
     </g>
     <g id="line2d_47">
      <g>
       <use style="stroke:#000000;stroke-width:0.6;" x="45.932062" xlink:href="#mace06364c3" y="263.497859"/>
      </g>
     </g>
    </g>
    <g id="ytick_10">
     <g id="line2d_48">
      <path clip-path="url(#pd3b2087e16)" d="M 45.932062 249.001213 
L 436.354585 249.001213 
" style="fill:none;stroke:#d4cdcd;stroke-linecap:square;stroke-width:0.3;"/>
     </g>
     <g id="line2d_49">
      <g>
       <use style="stroke:#000000;stroke-width:0.6;" x="45.932062" xlink:href="#mace06364c3" y="249.001213"/>
      </g>
     </g>
    </g>
    <g id="ytick_11">
     <g id="line2d_50">
      <path clip-path="url(#pd3b2087e16)" d="M 45.932062 234.504567 
L 436.354585 234.504567 
" style="fill:none;stroke:#d4cdcd;stroke-linecap:square;stroke-width:0.3;"/>
     </g>
     <g id="line2d_51">
      <g>
       <use style="stroke:#000000;stroke-width:0.6;" x="45.932062" xlink:href="#mace06364c3" y="234.504567"/>
      </g>
     </g>
    </g>
    <g id="ytick_12">
     <g id="line2d_52">
      <path clip-path="url(#pd3b2087e16)" d="M 45.932062 220.007921 
L 436.354585 220.007921 
" style="fill:none;stroke:#d4cdcd;stroke-linecap:square;stroke-width:0.3;"/>
     </g>
     <g id="line2d_53">
      <g>
       <use style="stroke:#000000;stroke-width:0.6;" x="45.932062" xlink:href="#mace06364c3" y="220.007921"/>
      </g>
     </g>
    </g>
    <g id="ytick_13">
     <g id="line2d_54">
      <path clip-path="url(#pd3b2087e16)" d="M 45.932062 205.511275 
L 436.354585 205.511275 
" style="fill:none;stroke:#d4cdcd;stroke-linecap:square;stroke-width:0.3;"/>
     </g>
     <g id="line2d_55">
      <g>
       <use style="stroke:#000000;stroke-width:0.6;" x="45.932062" xlink:href="#mace06364c3" y="205.511275"/>
      </g>
     </g>
    </g>
    <g id="ytick_14">
     <g id="line2d_56">
      <path clip-path="url(#pd3b2087e16)" d="M 45.932062 191.014629 
L 436.354585 191.014629 
" style="fill:none;stroke:#d4cdcd;stroke-linecap:square;stroke-width:0.3;"/>
     </g>
     <g id="line2d_57">
      <g>
       <use style="stroke:#000000;stroke-width:0.6;" x="45.932062" xlink:href="#mace06364c3" y="191.014629"/>
      </g>
     </g>
    </g>
    <g id="ytick_15">
     <g id="line2d_58">
      <path clip-path="url(#pd3b2087e16)" d="M 45.932062 176.517983 
L 436.354585 176.517983 
" style="fill:none;stroke:#d4cdcd;stroke-linecap:square;stroke-width:0.3;"/>
     </g>
     <g id="line2d_59">
      <g>
       <use style="stroke:#000000;stroke-width:0.6;" x="45.932062" xlink:href="#mace06364c3" y="176.517983"/>
      </g>
     </g>
    </g>
    <g id="ytick_16">
     <g id="line2d_60">
      <path clip-path="url(#pd3b2087e16)" d="M 45.932062 162.021337 
L 436.354585 162.021337 
" style="fill:none;stroke:#d4cdcd;stroke-linecap:square;stroke-width:0.3;"/>
     </g>
     <g id="line2d_61">
      <g>
       <use style="stroke:#000000;stroke-width:0.6;" x="45.932062" xlink:href="#mace06364c3" y="162.021337"/>
      </g>
     </g>
    </g>
    <g id="ytick_17">
     <g id="line2d_62">
      <path clip-path="url(#pd3b2087e16)" d="M 45.932062 147.524691 
L 436.354585 147.524691 
" style="fill:none;stroke:#d4cdcd;stroke-linecap:square;stroke-width:0.3;"/>
     </g>
     <g id="line2d_63">
      <g>
       <use style="stroke:#000000;stroke-width:0.6;" x="45.932062" xlink:href="#mace06364c3" y="147.524691"/>
      </g>
     </g>
    </g>
    <g id="ytick_18">
     <g id="line2d_64">
      <path clip-path="url(#pd3b2087e16)" d="M 45.932062 133.028045 
L 436.354585 133.028045 
" style="fill:none;stroke:#d4cdcd;stroke-linecap:square;stroke-width:0.3;"/>
     </g>
     <g id="line2d_65">
      <g>
       <use style="stroke:#000000;stroke-width:0.6;" x="45.932062" xlink:href="#mace06364c3" y="133.028045"/>
      </g>
     </g>
    </g>
    <g id="ytick_19">
     <g id="line2d_66">
      <path clip-path="url(#pd3b2087e16)" d="M 45.932062 118.531399 
L 436.354585 118.531399 
" style="fill:none;stroke:#d4cdcd;stroke-linecap:square;stroke-width:0.3;"/>
     </g>
     <g id="line2d_67">
      <g>
       <use style="stroke:#000000;stroke-width:0.6;" x="45.932062" xlink:href="#mace06364c3" y="118.531399"/>
      </g>
     </g>
    </g>
    <g id="ytick_20">
     <g id="line2d_68">
      <path clip-path="url(#pd3b2087e16)" d="M 45.932062 104.034753 
L 436.354585 104.034753 
" style="fill:none;stroke:#d4cdcd;stroke-linecap:square;stroke-width:0.3;"/>
     </g>
     <g id="line2d_69">
      <g>
       <use style="stroke:#000000;stroke-width:0.6;" x="45.932062" xlink:href="#mace06364c3" y="104.034753"/>
      </g>
     </g>
    </g>
    <g id="ytick_21">
     <g id="line2d_70">
      <path clip-path="url(#pd3b2087e16)" d="M 45.932062 89.538107 
L 436.354585 89.538107 
" style="fill:none;stroke:#d4cdcd;stroke-linecap:square;stroke-width:0.3;"/>
     </g>
     <g id="line2d_71">
      <g>
       <use style="stroke:#000000;stroke-width:0.6;" x="45.932062" xlink:href="#mace06364c3" y="89.538107"/>
      </g>
     </g>
    </g>
    <g id="ytick_22">
     <g id="line2d_72">
      <path clip-path="url(#pd3b2087e16)" d="M 45.932062 75.041461 
L 436.354585 75.041461 
" style="fill:none;stroke:#d4cdcd;stroke-linecap:square;stroke-width:0.3;"/>
     </g>
     <g id="line2d_73">
      <g>
       <use style="stroke:#000000;stroke-width:0.6;" x="45.932062" xlink:href="#mace06364c3" y="75.041461"/>
      </g>
     </g>
    </g>
    <g id="ytick_23">
     <g id="line2d_74">
      <path clip-path="url(#pd3b2087e16)" d="M 45.932062 60.544815 
L 436.354585 60.544815 
" style="fill:none;stroke:#d4cdcd;stroke-linecap:square;stroke-width:0.3;"/>
     </g>
     <g id="line2d_75">
      <g>
       <use style="stroke:#000000;stroke-width:0.6;" x="45.932062" xlink:href="#mace06364c3" y="60.544815"/>
      </g>
     </g>
    </g>
    <g id="ytick_24">
     <g id="line2d_76">
      <path clip-path="url(#pd3b2087e16)" d="M 45.932062 46.04817 
L 436.354585 46.04817 
" style="fill:none;stroke:#d4cdcd;stroke-linecap:square;stroke-width:0.3;"/>
     </g>
     <g id="line2d_77">
      <g>
       <use style="stroke:#000000;stroke-width:0.6;" x="45.932062" xlink:href="#mace06364c3" y="46.04817"/>
      </g>
     </g>
    </g>
    <g id="ytick_25">
     <g id="line2d_78">
      <path clip-path="url(#pd3b2087e16)" d="M 45.932062 31.551524 
L 436.354585 31.551524 
" style="fill:none;stroke:#d4cdcd;stroke-linecap:square;stroke-width:0.3;"/>
     </g>
     <g id="line2d_79">
      <g>
       <use style="stroke:#000000;stroke-width:0.6;" x="45.932062" xlink:href="#mace06364c3" y="31.551524"/>
      </g>
     </g>
    </g>
    <g id="ytick_26">
     <g id="line2d_80">
      <path clip-path="url(#pd3b2087e16)" d="M 45.932062 17.054878 
L 436.354585 17.054878 
" style="fill:none;stroke:#d4cdcd;stroke-linecap:square;stroke-width:0.3;"/>
     </g>
     <g id="line2d_81">
      <g>
       <use style="stroke:#000000;stroke-width:0.6;" x="45.932062" xlink:href="#mace06364c3" y="17.054878"/>
      </g>
     </g>
    </g>
    <g id="text_14">
     <!-- Parcels [#] -->
     <defs>
      <path d="M 7.515625 17.828125 
L 0.875 17.828125 
L 0.875 28.5625 
L 9.671875 28.5625 
L 12.59375 42.96875 
L 0.875 42.96875 
L 0.875 53.765625 
L 14.796875 53.765625 
L 18.65625 72.796875 
L 29.59375 72.796875 
L 25.734375 53.765625 
L 36.53125 53.765625 
L 40.28125 72.796875 
L 51.609375 72.796875 
L 47.703125 53.765625 
L 54.4375 53.765625 
L 54.4375 42.96875 
L 45.515625 42.96875 
L 42.578125 28.5625 
L 54.4375 28.5625 
L 54.4375 17.828125 
L 40.375 17.828125 
L 36.53125 -1.21875 
L 25.640625 -1.21875 
L 29.390625 17.828125 
L 18.5625 17.828125 
L 14.703125 -1.21875 
L 3.65625 -1.21875 
z
M 23.578125 42.96875 
L 20.703125 28.5625 
L 31.546875 28.5625 
L 34.375 42.96875 
z
" id="Arial-BoldMT-23"/>
     </defs>
     <g transform="translate(9.690402 187.312743)rotate(-90)scale(0.1 -0.1)">
      <use xlink:href="#Arial-BoldMT-50"/>
      <use x="66.699219" xlink:href="#Arial-BoldMT-61"/>
      <use x="122.314453" xlink:href="#Arial-BoldMT-72"/>
      <use x="161.230469" xlink:href="#Arial-BoldMT-63"/>
      <use x="216.845703" xlink:href="#Arial-BoldMT-65"/>
      <use x="272.460938" xlink:href="#Arial-BoldMT-6c"/>
      <use x="300.244141" xlink:href="#Arial-BoldMT-73"/>
      <use x="355.859375" xlink:href="#Arial-BoldMT-20"/>
      <use x="383.642578" xlink:href="#Arial-BoldMT-5b"/>
      <use x="416.943359" xlink:href="#Arial-BoldMT-23"/>
      <use x="472.558594" xlink:href="#Arial-BoldMT-5d"/>
     </g>
    </g>
   </g>
   <g id="patch_3">
    <path clip-path="url(#pd3b2087e16)" d="M 45.932062 306.987797 
L 60.948313 306.987797 
L 60.948313 41.612196 
L 45.932062 41.612196 
z
" style="fill:#003781;stroke:#000000;stroke-linejoin:miter;stroke-width:0.3;"/>
   </g>
   <g id="patch_4">
    <path clip-path="url(#pd3b2087e16)" d="M 60.948313 306.987797 
L 75.964563 306.987797 
L 75.964563 224.356915 
L 60.948313 224.356915 
z
" style="fill:#003781;stroke:#000000;stroke-linejoin:miter;stroke-width:0.3;"/>
   </g>
   <g id="patch_5">
    <path clip-path="url(#pd3b2087e16)" d="M 75.964563 306.987797 
L 90.980814 306.987797 
L 90.980814 237.403896 
L 75.964563 237.403896 
z
" style="fill:#003781;stroke:#000000;stroke-linejoin:miter;stroke-width:0.3;"/>
   </g>
   <g id="patch_6">
    <path clip-path="url(#pd3b2087e16)" d="M 90.980814 306.987797 
L 105.997065 306.987797 
L 105.997065 241.767387 
L 90.980814 241.767387 
z
" style="fill:#003781;stroke:#000000;stroke-linejoin:miter;stroke-width:0.3;"/>
   </g>
   <g id="patch_7">
    <path clip-path="url(#pd3b2087e16)" d="M 105.997065 306.987797 
L 121.013316 306.987797 
L 121.013316 262.048194 
L 105.997065 262.048194 
z
" style="fill:#003781;stroke:#000000;stroke-linejoin:miter;stroke-width:0.3;"/>
   </g>
   <g id="patch_8">
    <path clip-path="url(#pd3b2087e16)" d="M 121.013316 306.987797 
L 136.029567 306.987797 
L 136.029567 275.095176 
L 121.013316 275.095176 
z
" style="fill:#003781;stroke:#000000;stroke-linejoin:miter;stroke-width:0.3;"/>
   </g>
   <g id="patch_9">
    <path clip-path="url(#pd3b2087e16)" d="M 136.029567 306.987797 
L 151.045818 306.987797 
L 151.045818 286.692492 
L 136.029567 286.692492 
z
" style="fill:#003781;stroke:#000000;stroke-linejoin:miter;stroke-width:0.3;"/>
   </g>
   <g id="patch_10">
    <path clip-path="url(#pd3b2087e16)" d="M 151.045818 306.987797 
L 166.062069 306.987797 
L 166.062069 292.491151 
L 151.045818 292.491151 
z
" style="fill:#003781;stroke:#000000;stroke-linejoin:miter;stroke-width:0.3;"/>
   </g>
   <g id="patch_11">
    <path clip-path="url(#pd3b2087e16)" d="M 166.062069 306.987797 
L 181.07832 306.987797 
L 181.07832 296.840145 
L 166.062069 296.840145 
z
" style="fill:#003781;stroke:#000000;stroke-linejoin:miter;stroke-width:0.3;"/>
   </g>
   <g id="patch_12">
    <path clip-path="url(#pd3b2087e16)" d="M 181.07832 306.987797 
L 196.094571 306.987797 
L 196.094571 299.739474 
L 181.07832 299.739474 
z
" style="fill:#003781;stroke:#000000;stroke-linejoin:miter;stroke-width:0.3;"/>
   </g>
   <g id="patch_13">
    <path clip-path="url(#pd3b2087e16)" d="M 196.094571 306.987797 
L 211.110822 306.987797 
L 211.110822 301.189138 
L 196.094571 301.189138 
z
" style="fill:#003781;stroke:#000000;stroke-linejoin:miter;stroke-width:0.3;"/>
   </g>
   <g id="patch_14">
    <path clip-path="url(#pd3b2087e16)" d="M 211.110822 306.987797 
L 226.127072 306.987797 
L 226.127072 304.088468 
L 211.110822 304.088468 
z
" style="fill:#003781;stroke:#000000;stroke-linejoin:miter;stroke-width:0.3;"/>
   </g>
   <g id="patch_15">
    <path clip-path="url(#pd3b2087e16)" d="M 226.127072 306.987797 
L 241.143323 306.987797 
L 241.143323 305.538132 
L 226.127072 305.538132 
z
" style="fill:#003781;stroke:#000000;stroke-linejoin:miter;stroke-width:0.3;"/>
   </g>
   <g id="patch_16">
    <path clip-path="url(#pd3b2087e16)" d="M 241.143323 306.987797 
L 256.159574 306.987797 
L 256.159574 302.638803 
L 241.143323 302.638803 
z
" style="fill:#003781;stroke:#000000;stroke-linejoin:miter;stroke-width:0.3;"/>
   </g>
   <g id="patch_17">
    <path clip-path="url(#pd3b2087e16)" d="M 256.159574 306.987797 
L 271.175825 306.987797 
L 271.175825 306.987797 
L 256.159574 306.987797 
z
" style="fill:#003781;stroke:#000000;stroke-linejoin:miter;stroke-width:0.3;"/>
   </g>
   <g id="patch_18">
    <path clip-path="url(#pd3b2087e16)" d="M 271.175825 306.987797 
L 286.192076 306.987797 
L 286.192076 305.538132 
L 271.175825 305.538132 
z
" style="fill:#003781;stroke:#000000;stroke-linejoin:miter;stroke-width:0.3;"/>
   </g>
   <g id="patch_19">
    <path clip-path="url(#pd3b2087e16)" d="M 286.192076 306.987797 
L 301.208327 306.987797 
L 301.208327 304.088468 
L 286.192076 304.088468 
z
" style="fill:#003781;stroke:#000000;stroke-linejoin:miter;stroke-width:0.3;"/>
   </g>
   <g id="patch_20">
    <path clip-path="url(#pd3b2087e16)" d="M 301.208327 306.987797 
L 316.224578 306.987797 
L 316.224578 306.987797 
L 301.208327 306.987797 
z
" style="fill:#003781;stroke:#000000;stroke-linejoin:miter;stroke-width:0.3;"/>
   </g>
   <g id="patch_21">
    <path clip-path="url(#pd3b2087e16)" d="M 316.224578 306.987797 
L 331.240829 306.987797 
L 331.240829 306.987797 
L 316.224578 306.987797 
z
" style="fill:#003781;stroke:#000000;stroke-linejoin:miter;stroke-width:0.3;"/>
   </g>
   <g id="patch_22">
    <path clip-path="url(#pd3b2087e16)" d="M 331.240829 306.987797 
L 346.25708 306.987797 
L 346.25708 306.987797 
L 331.240829 306.987797 
z
" style="fill:#003781;stroke:#000000;stroke-linejoin:miter;stroke-width:0.3;"/>
   </g>
   <g id="patch_23">
    <path clip-path="url(#pd3b2087e16)" d="M 346.25708 306.987797 
L 361.273331 306.987797 
L 361.273331 306.987797 
L 346.25708 306.987797 
z
" style="fill:#003781;stroke:#000000;stroke-linejoin:miter;stroke-width:0.3;"/>
   </g>
   <g id="patch_24">
    <path clip-path="url(#pd3b2087e16)" d="M 361.273331 306.987797 
L 376.289582 306.987797 
L 376.289582 305.538132 
L 361.273331 305.538132 
z
" style="fill:#003781;stroke:#000000;stroke-linejoin:miter;stroke-width:0.3;"/>
   </g>
   <g id="patch_25">
    <path clip-path="url(#pd3b2087e16)" d="M 376.289582 306.987797 
L 391.305832 306.987797 
L 391.305832 305.538132 
L 376.289582 305.538132 
z
" style="fill:#003781;stroke:#000000;stroke-linejoin:miter;stroke-width:0.3;"/>
   </g>
   <g id="patch_26">
    <path clip-path="url(#pd3b2087e16)" d="M 391.305832 306.987797 
L 406.322083 306.987797 
L 406.322083 305.538132 
L 391.305832 305.538132 
z
" style="fill:#003781;stroke:#000000;stroke-linejoin:miter;stroke-width:0.3;"/>
   </g>
   <g id="patch_27">
    <path clip-path="url(#pd3b2087e16)" d="M 406.322083 306.987797 
L 421.338334 306.987797 
L 421.338334 306.987797 
L 406.322083 306.987797 
z
" style="fill:#003781;stroke:#000000;stroke-linejoin:miter;stroke-width:0.3;"/>
   </g>
   <g id="patch_28">
    <path clip-path="url(#pd3b2087e16)" d="M 421.338334 306.987797 
L 436.354585 306.987797 
L 436.354585 306.987797 
L 421.338334 306.987797 
z
" style="fill:#003781;stroke:#000000;stroke-linejoin:miter;stroke-width:0.3;"/>
   </g>
   <g id="patch_29">
    <path d="M 45.932062 306.987797 
L 45.932062 17.054878 
" style="fill:none;stroke:#000000;stroke-linecap:square;stroke-linejoin:miter;stroke-width:0.5;"/>
   </g>
   <g id="patch_30">
    <path d="M 45.932062 306.987797 
L 436.354585 306.987797 
" style="fill:none;stroke:#000000;stroke-linecap:square;stroke-linejoin:miter;stroke-width:0.5;"/>
   </g>
  </g>
 </g>
 <defs>
  <clipPath id="pd3b2087e16">
   <rect height="289.932919" width="390.422524" x="45.932062" y="17.054878"/>
  </clipPath>
 </defs>
</svg>
