<?xml version="1.0" encoding="utf-8" standalone="no"?>
<!DOCTYPE svg PUBLIC "-//W3C//DTD SVG 1.1//EN"
  "http://www.w3.org/Graphics/SVG/1.1/DTD/svg11.dtd">
<!-- Created with matplotlib (http://matplotlib.org/) -->
<svg height="341pt" version="1.1" viewBox="0 0 459 341" width="459pt" xmlns="http://www.w3.org/2000/svg" xmlns:xlink="http://www.w3.org/1999/xlink">
 <defs>
  <style type="text/css">
*{stroke-linecap:butt;stroke-linejoin:round;}
  </style>
 </defs>
 <g id="figure_1">
  <g id="patch_1">
   <path d="M 0 341.097552 
L 459.320616 341.097552 
L 459.320616 0 
L 0 0 
z
" style="fill:#ffffff;"/>
  </g>
  <g id="axes_1">
   <g id="patch_2">
    <path d="M 45.932062 293.343895 
L 436.354585 293.343895 
L 436.354585 17.054878 
L 45.932062 17.054878 
z
" style="fill:#ffffff;"/>
   </g>
   <g id="matplotlib.axis_1">
    <g id="xtick_1">
     <g id="line2d_1">
      <defs>
       <path d="M 0 0 
L 0 4 
" id="m27e1bbd88b" style="stroke:#000000;stroke-width:0.3;"/>
      </defs>
      <g>
       <use style="stroke:#000000;stroke-width:0.3;" x="63.67854" xlink:href="#m27e1bbd88b" y="293.343895"/>
      </g>
     </g>
     <g id="text_1">
      <!-- 2015 -->
      <defs>
       <path d="M 50.34375 8.453125 
L 50.34375 0 
L 3.03125 0 
Q 2.9375 3.171875 4.046875 6.109375 
Q 5.859375 10.9375 9.828125 15.625 
Q 13.8125 20.3125 21.34375 26.46875 
Q 33.015625 36.03125 37.109375 41.625 
Q 41.21875 47.21875 41.21875 52.203125 
Q 41.21875 57.421875 37.46875 61 
Q 33.734375 64.59375 27.734375 64.59375 
Q 21.390625 64.59375 17.578125 60.78125 
Q 13.765625 56.984375 13.71875 50.25 
L 4.6875 51.171875 
Q 5.609375 61.28125 11.65625 66.578125 
Q 17.71875 71.875 27.9375 71.875 
Q 38.234375 71.875 44.234375 66.15625 
Q 50.25 60.453125 50.25 52 
Q 50.25 47.703125 48.484375 43.546875 
Q 46.734375 39.40625 42.65625 34.8125 
Q 38.578125 30.21875 29.109375 22.21875 
Q 21.1875 15.578125 18.9375 13.203125 
Q 16.703125 10.84375 15.234375 8.453125 
z
" id="ArialMT-32"/>
       <path d="M 4.15625 35.296875 
Q 4.15625 48 6.765625 55.734375 
Q 9.375 63.484375 14.515625 67.671875 
Q 19.671875 71.875 27.484375 71.875 
Q 33.25 71.875 37.59375 69.546875 
Q 41.9375 67.234375 44.765625 62.859375 
Q 47.609375 58.5 49.21875 52.21875 
Q 50.828125 45.953125 50.828125 35.296875 
Q 50.828125 22.703125 48.234375 14.96875 
Q 45.65625 7.234375 40.5 3 
Q 35.359375 -1.21875 27.484375 -1.21875 
Q 17.140625 -1.21875 11.234375 6.203125 
Q 4.15625 15.140625 4.15625 35.296875 
z
M 13.1875 35.296875 
Q 13.1875 17.671875 17.3125 11.828125 
Q 21.4375 6 27.484375 6 
Q 33.546875 6 37.671875 11.859375 
Q 41.796875 17.71875 41.796875 35.296875 
Q 41.796875 52.984375 37.671875 58.78125 
Q 33.546875 64.59375 27.390625 64.59375 
Q 21.34375 64.59375 17.71875 59.46875 
Q 13.1875 52.9375 13.1875 35.296875 
z
" id="ArialMT-30"/>
       <path d="M 37.25 0 
L 28.46875 0 
L 28.46875 56 
Q 25.296875 52.984375 20.140625 49.953125 
Q 14.984375 46.921875 10.890625 45.40625 
L 10.890625 53.90625 
Q 18.265625 57.375 23.78125 62.296875 
Q 29.296875 67.234375 31.59375 71.875 
L 37.25 71.875 
z
" id="ArialMT-31"/>
       <path d="M 4.15625 18.75 
L 13.375 19.53125 
Q 14.40625 12.796875 18.140625 9.390625 
Q 21.875 6 27.15625 6 
Q 33.5 6 37.890625 10.78125 
Q 42.28125 15.578125 42.28125 23.484375 
Q 42.28125 31 38.0625 35.34375 
Q 33.84375 39.703125 27 39.703125 
Q 22.75 39.703125 19.328125 37.765625 
Q 15.921875 35.84375 13.96875 32.765625 
L 5.71875 33.84375 
L 12.640625 70.609375 
L 48.25 70.609375 
L 48.25 62.203125 
L 19.671875 62.203125 
L 15.828125 42.96875 
Q 22.265625 47.46875 29.34375 47.46875 
Q 38.71875 47.46875 45.15625 40.96875 
Q 51.609375 34.46875 51.609375 24.265625 
Q 51.609375 14.546875 45.953125 7.46875 
Q 39.0625 -1.21875 27.15625 -1.21875 
Q 17.390625 -1.21875 11.203125 4.25 
Q 5.03125 9.71875 4.15625 18.75 
z
" id="ArialMT-35"/>
      </defs>
      <g transform="translate(51.787488 315.272185)rotate(-45)scale(0.0694 -0.0694)">
       <use xlink:href="#ArialMT-32"/>
       <use x="55.615234" xlink:href="#ArialMT-30"/>
       <use x="111.230469" xlink:href="#ArialMT-31"/>
       <use x="166.845703" xlink:href="#ArialMT-35"/>
      </g>
     </g>
    </g>
    <g id="xtick_2">
     <g id="line2d_2">
      <g>
       <use style="stroke:#000000;stroke-width:0.3;" x="241.143323" xlink:href="#m27e1bbd88b" y="293.343895"/>
      </g>
     </g>
     <g id="text_2">
      <!-- 2016 -->
      <defs>
       <path d="M 49.75 54.046875 
L 41.015625 53.375 
Q 39.84375 58.546875 37.703125 60.890625 
Q 34.125 64.65625 28.90625 64.65625 
Q 24.703125 64.65625 21.53125 62.3125 
Q 17.390625 59.28125 14.984375 53.46875 
Q 12.59375 47.65625 12.5 36.921875 
Q 15.671875 41.75 20.265625 44.09375 
Q 24.859375 46.4375 29.890625 46.4375 
Q 38.671875 46.4375 44.84375 39.96875 
Q 51.03125 33.5 51.03125 23.25 
Q 51.03125 16.5 48.125 10.71875 
Q 45.21875 4.9375 40.140625 1.859375 
Q 35.0625 -1.21875 28.609375 -1.21875 
Q 17.625 -1.21875 10.6875 6.859375 
Q 3.765625 14.9375 3.765625 33.5 
Q 3.765625 54.25 11.421875 63.671875 
Q 18.109375 71.875 29.4375 71.875 
Q 37.890625 71.875 43.28125 67.140625 
Q 48.6875 62.40625 49.75 54.046875 
z
M 13.875 23.1875 
Q 13.875 18.65625 15.796875 14.5 
Q 17.71875 10.359375 21.1875 8.171875 
Q 24.65625 6 28.46875 6 
Q 34.03125 6 38.03125 10.484375 
Q 42.046875 14.984375 42.046875 22.703125 
Q 42.046875 30.125 38.078125 34.390625 
Q 34.125 38.671875 28.125 38.671875 
Q 22.171875 38.671875 18.015625 34.390625 
Q 13.875 30.125 13.875 23.1875 
z
" id="ArialMT-36"/>
      </defs>
      <g transform="translate(229.252271 315.272185)rotate(-45)scale(0.0694 -0.0694)">
       <use xlink:href="#ArialMT-32"/>
       <use x="55.615234" xlink:href="#ArialMT-30"/>
       <use x="111.230469" xlink:href="#ArialMT-31"/>
       <use x="166.845703" xlink:href="#ArialMT-36"/>
      </g>
     </g>
    </g>
    <g id="xtick_3">
     <g id="line2d_3">
      <g>
       <use style="stroke:#000000;stroke-width:0.3;" x="418.608107" xlink:href="#m27e1bbd88b" y="293.343895"/>
      </g>
     </g>
     <g id="text_3">
      <!-- 2017 -->
      <defs>
       <path d="M 4.734375 62.203125 
L 4.734375 70.65625 
L 51.078125 70.65625 
L 51.078125 63.8125 
Q 44.234375 56.546875 37.515625 44.484375 
Q 30.8125 32.421875 27.15625 19.671875 
Q 24.515625 10.6875 23.78125 0 
L 14.75 0 
Q 14.890625 8.453125 18.0625 20.40625 
Q 21.234375 32.375 27.171875 43.484375 
Q 33.109375 54.59375 39.796875 62.203125 
z
" id="ArialMT-37"/>
      </defs>
      <g transform="translate(406.717055 315.272185)rotate(-45)scale(0.0694 -0.0694)">
       <use xlink:href="#ArialMT-32"/>
       <use x="55.615234" xlink:href="#ArialMT-30"/>
       <use x="111.230469" xlink:href="#ArialMT-31"/>
       <use x="166.845703" xlink:href="#ArialMT-37"/>
      </g>
     </g>
    </g>
    <g id="text_4">
     <!-- Year -->
     <defs>
      <path d="M 26.078125 0 
L 26.078125 30.125 
L -0.140625 71.578125 
L 16.796875 71.578125 
L 33.640625 43.265625 
L 50.140625 71.578125 
L 66.796875 71.578125 
L 40.484375 30.03125 
L 40.484375 0 
z
" id="Arial-BoldMT-59"/>
      <path d="M 37.203125 16.5 
L 50.875 14.203125 
Q 48.25 6.6875 42.546875 2.75 
Q 36.859375 -1.171875 28.328125 -1.171875 
Q 14.796875 -1.171875 8.296875 7.671875 
Q 3.171875 14.75 3.171875 25.53125 
Q 3.171875 38.421875 9.90625 45.71875 
Q 16.65625 53.03125 26.953125 53.03125 
Q 38.53125 53.03125 45.21875 45.390625 
Q 51.90625 37.75 51.609375 21.96875 
L 17.234375 21.96875 
Q 17.390625 15.875 20.5625 12.46875 
Q 23.734375 9.078125 28.46875 9.078125 
Q 31.6875 9.078125 33.875 10.828125 
Q 36.078125 12.59375 37.203125 16.5 
z
M 37.984375 30.375 
Q 37.84375 36.328125 34.90625 39.421875 
Q 31.984375 42.53125 27.78125 42.53125 
Q 23.296875 42.53125 20.359375 39.265625 
Q 17.4375 35.984375 17.484375 30.375 
z
" id="Arial-BoldMT-65"/>
      <path d="M 17.4375 36.03125 
L 4.984375 38.28125 
Q 7.078125 45.796875 12.203125 49.40625 
Q 17.328125 53.03125 27.4375 53.03125 
Q 36.625 53.03125 41.109375 50.859375 
Q 45.609375 48.6875 47.4375 45.34375 
Q 49.265625 42 49.265625 33.0625 
L 49.125 17.046875 
Q 49.125 10.203125 49.78125 6.953125 
Q 50.4375 3.71875 52.25 0 
L 38.671875 0 
Q 38.140625 1.375 37.359375 4.046875 
Q 37.015625 5.28125 36.859375 5.671875 
Q 33.34375 2.25 29.34375 0.53125 
Q 25.34375 -1.171875 20.796875 -1.171875 
Q 12.796875 -1.171875 8.171875 3.171875 
Q 3.5625 7.515625 3.5625 14.15625 
Q 3.5625 18.5625 5.65625 22 
Q 7.765625 25.4375 11.546875 27.265625 
Q 15.328125 29.109375 22.46875 30.46875 
Q 32.078125 32.28125 35.796875 33.84375 
L 35.796875 35.203125 
Q 35.796875 39.15625 33.84375 40.84375 
Q 31.890625 42.53125 26.46875 42.53125 
Q 22.796875 42.53125 20.75 41.09375 
Q 18.703125 39.65625 17.4375 36.03125 
z
M 35.796875 24.90625 
Q 33.15625 24.03125 27.4375 22.796875 
Q 21.734375 21.578125 19.96875 20.40625 
Q 17.28125 18.5 17.28125 15.578125 
Q 17.28125 12.703125 19.421875 10.59375 
Q 21.578125 8.5 24.90625 8.5 
Q 28.609375 8.5 31.984375 10.9375 
Q 34.46875 12.796875 35.25 15.484375 
Q 35.796875 17.234375 35.796875 22.171875 
z
" id="Arial-BoldMT-61"/>
      <path d="M 20.3125 0 
L 6.59375 0 
L 6.59375 51.859375 
L 19.34375 51.859375 
L 19.34375 44.484375 
Q 22.609375 49.703125 25.21875 51.359375 
Q 27.828125 53.03125 31.15625 53.03125 
Q 35.84375 53.03125 40.1875 50.4375 
L 35.9375 38.484375 
Q 32.46875 40.71875 29.5 40.71875 
Q 26.609375 40.71875 24.609375 39.125 
Q 22.609375 37.546875 21.453125 33.390625 
Q 20.3125 29.25 20.3125 16.015625 
z
" id="Arial-BoldMT-72"/>
     </defs>
     <g transform="translate(230.305042 329.405328)scale(0.1 -0.1)">
      <use xlink:href="#Arial-BoldMT-59"/>
      <use x="66.621094" xlink:href="#Arial-BoldMT-65"/>
      <use x="122.236328" xlink:href="#Arial-BoldMT-61"/>
      <use x="177.851562" xlink:href="#Arial-BoldMT-72"/>
     </g>
    </g>
   </g>
   <g id="matplotlib.axis_2">
    <g id="ytick_1">
     <g id="line2d_4">
      <path clip-path="url(#p0d9abe4412)" d="M 45.932062 293.343895 
L 436.354585 293.343895 
" style="fill:none;stroke:#d4cdcd;stroke-linecap:square;stroke-width:0.3;"/>
     </g>
     <g id="line2d_5">
      <defs>
       <path d="M 0 0 
L -3.5 0 
" id="m99c3b68a1f" style="stroke:#000000;stroke-width:0.7;"/>
      </defs>
      <g>
       <use style="stroke:#000000;stroke-width:0.7;" x="45.932062" xlink:href="#m99c3b68a1f" y="293.343895"/>
      </g>
     </g>
     <g id="text_5">
      <!-- 0 -->
      <g transform="translate(35.072771 295.827656)scale(0.0694 -0.0694)">
       <use xlink:href="#ArialMT-30"/>
      </g>
     </g>
    </g>
    <g id="ytick_2">
     <g id="line2d_6">
      <path clip-path="url(#p0d9abe4412)" d="M 45.932062 265.714993 
L 436.354585 265.714993 
" style="fill:none;stroke:#d4cdcd;stroke-linecap:square;stroke-width:0.3;"/>
     </g>
     <g id="line2d_7">
      <g>
       <use style="stroke:#000000;stroke-width:0.7;" x="45.932062" xlink:href="#m99c3b68a1f" y="265.714993"/>
      </g>
     </g>
     <g id="text_6">
      <!-- 500 -->
      <g transform="translate(27.35419 268.198754)scale(0.0694 -0.0694)">
       <use xlink:href="#ArialMT-35"/>
       <use x="55.615234" xlink:href="#ArialMT-30"/>
       <use x="111.230469" xlink:href="#ArialMT-30"/>
      </g>
     </g>
    </g>
    <g id="ytick_3">
     <g id="line2d_8">
      <path clip-path="url(#p0d9abe4412)" d="M 45.932062 238.086091 
L 436.354585 238.086091 
" style="fill:none;stroke:#d4cdcd;stroke-linecap:square;stroke-width:0.3;"/>
     </g>
     <g id="line2d_9">
      <g>
       <use style="stroke:#000000;stroke-width:0.7;" x="45.932062" xlink:href="#m99c3b68a1f" y="238.086091"/>
      </g>
     </g>
     <g id="text_7">
      <!-- 1.000 -->
      <defs>
       <path d="M 9.078125 0 
L 9.078125 10.015625 
L 19.09375 10.015625 
L 19.09375 0 
z
" id="ArialMT-2e"/>
      </defs>
      <g transform="translate(21.56688 240.569852)scale(0.0694 -0.0694)">
       <use xlink:href="#ArialMT-31"/>
       <use x="55.615234" xlink:href="#ArialMT-2e"/>
       <use x="83.398438" xlink:href="#ArialMT-30"/>
       <use x="139.013672" xlink:href="#ArialMT-30"/>
       <use x="194.628906" xlink:href="#ArialMT-30"/>
      </g>
     </g>
    </g>
    <g id="ytick_4">
     <g id="line2d_10">
      <path clip-path="url(#p0d9abe4412)" d="M 45.932062 210.45719 
L 436.354585 210.45719 
" style="fill:none;stroke:#d4cdcd;stroke-linecap:square;stroke-width:0.3;"/>
     </g>
     <g id="line2d_11">
      <g>
       <use style="stroke:#000000;stroke-width:0.7;" x="45.932062" xlink:href="#m99c3b68a1f" y="210.45719"/>
      </g>
     </g>
     <g id="text_8">
      <!-- 1.500 -->
      <g transform="translate(21.56688 212.940951)scale(0.0694 -0.0694)">
       <use xlink:href="#ArialMT-31"/>
       <use x="55.615234" xlink:href="#ArialMT-2e"/>
       <use x="83.398438" xlink:href="#ArialMT-35"/>
       <use x="139.013672" xlink:href="#ArialMT-30"/>
       <use x="194.628906" xlink:href="#ArialMT-30"/>
      </g>
     </g>
    </g>
    <g id="ytick_5">
     <g id="line2d_12">
      <path clip-path="url(#p0d9abe4412)" d="M 45.932062 182.828288 
L 436.354585 182.828288 
" style="fill:none;stroke:#d4cdcd;stroke-linecap:square;stroke-width:0.3;"/>
     </g>
     <g id="line2d_13">
      <g>
       <use style="stroke:#000000;stroke-width:0.7;" x="45.932062" xlink:href="#m99c3b68a1f" y="182.828288"/>
      </g>
     </g>
     <g id="text_9">
      <!-- 2.000 -->
      <g transform="translate(21.56688 185.312049)scale(0.0694 -0.0694)">
       <use xlink:href="#ArialMT-32"/>
       <use x="55.615234" xlink:href="#ArialMT-2e"/>
       <use x="83.398438" xlink:href="#ArialMT-30"/>
       <use x="139.013672" xlink:href="#ArialMT-30"/>
       <use x="194.628906" xlink:href="#ArialMT-30"/>
      </g>
     </g>
    </g>
    <g id="ytick_6">
     <g id="line2d_14">
      <path clip-path="url(#p0d9abe4412)" d="M 45.932062 155.199386 
L 436.354585 155.199386 
" style="fill:none;stroke:#d4cdcd;stroke-linecap:square;stroke-width:0.3;"/>
     </g>
     <g id="line2d_15">
      <g>
       <use style="stroke:#000000;stroke-width:0.7;" x="45.932062" xlink:href="#m99c3b68a1f" y="155.199386"/>
      </g>
     </g>
     <g id="text_10">
      <!-- 2.500 -->
      <g transform="translate(21.56688 157.683147)scale(0.0694 -0.0694)">
       <use xlink:href="#ArialMT-32"/>
       <use x="55.615234" xlink:href="#ArialMT-2e"/>
       <use x="83.398438" xlink:href="#ArialMT-35"/>
       <use x="139.013672" xlink:href="#ArialMT-30"/>
       <use x="194.628906" xlink:href="#ArialMT-30"/>
      </g>
     </g>
    </g>
    <g id="ytick_7">
     <g id="line2d_16">
      <path clip-path="url(#p0d9abe4412)" d="M 45.932062 127.570484 
L 436.354585 127.570484 
" style="fill:none;stroke:#d4cdcd;stroke-linecap:square;stroke-width:0.3;"/>
     </g>
     <g id="line2d_17">
      <g>
       <use style="stroke:#000000;stroke-width:0.7;" x="45.932062" xlink:href="#m99c3b68a1f" y="127.570484"/>
      </g>
     </g>
     <g id="text_11">
      <!-- 3.000 -->
      <defs>
       <path d="M 4.203125 18.890625 
L 12.984375 20.0625 
Q 14.5 12.59375 18.140625 9.296875 
Q 21.78125 6 27 6 
Q 33.203125 6 37.46875 10.296875 
Q 41.75 14.59375 41.75 20.953125 
Q 41.75 27 37.796875 30.921875 
Q 33.84375 34.859375 27.734375 34.859375 
Q 25.25 34.859375 21.53125 33.890625 
L 22.515625 41.609375 
Q 23.390625 41.5 23.921875 41.5 
Q 29.546875 41.5 34.03125 44.421875 
Q 38.53125 47.359375 38.53125 53.46875 
Q 38.53125 58.296875 35.25 61.46875 
Q 31.984375 64.65625 26.8125 64.65625 
Q 21.6875 64.65625 18.265625 61.421875 
Q 14.84375 58.203125 13.875 51.765625 
L 5.078125 53.328125 
Q 6.6875 62.15625 12.390625 67.015625 
Q 18.109375 71.875 26.609375 71.875 
Q 32.46875 71.875 37.390625 69.359375 
Q 42.328125 66.84375 44.9375 62.5 
Q 47.5625 58.15625 47.5625 53.265625 
Q 47.5625 48.640625 45.0625 44.828125 
Q 42.578125 41.015625 37.703125 38.765625 
Q 44.046875 37.3125 47.5625 32.6875 
Q 51.078125 28.078125 51.078125 21.140625 
Q 51.078125 11.765625 44.234375 5.25 
Q 37.40625 -1.265625 26.953125 -1.265625 
Q 17.53125 -1.265625 11.296875 4.34375 
Q 5.078125 9.96875 4.203125 18.890625 
z
" id="ArialMT-33"/>
      </defs>
      <g transform="translate(21.56688 130.054245)scale(0.0694 -0.0694)">
       <use xlink:href="#ArialMT-33"/>
       <use x="55.615234" xlink:href="#ArialMT-2e"/>
       <use x="83.398438" xlink:href="#ArialMT-30"/>
       <use x="139.013672" xlink:href="#ArialMT-30"/>
       <use x="194.628906" xlink:href="#ArialMT-30"/>
      </g>
     </g>
    </g>
    <g id="ytick_8">
     <g id="line2d_18">
      <path clip-path="url(#p0d9abe4412)" d="M 45.932062 99.941583 
L 436.354585 99.941583 
" style="fill:none;stroke:#d4cdcd;stroke-linecap:square;stroke-width:0.3;"/>
     </g>
     <g id="line2d_19">
      <g>
       <use style="stroke:#000000;stroke-width:0.7;" x="45.932062" xlink:href="#m99c3b68a1f" y="99.941583"/>
      </g>
     </g>
     <g id="text_12">
      <!-- 3.500 -->
      <g transform="translate(21.56688 102.425344)scale(0.0694 -0.0694)">
       <use xlink:href="#ArialMT-33"/>
       <use x="55.615234" xlink:href="#ArialMT-2e"/>
       <use x="83.398438" xlink:href="#ArialMT-35"/>
       <use x="139.013672" xlink:href="#ArialMT-30"/>
       <use x="194.628906" xlink:href="#ArialMT-30"/>
      </g>
     </g>
    </g>
    <g id="ytick_9">
     <g id="line2d_20">
      <path clip-path="url(#p0d9abe4412)" d="M 45.932062 72.312681 
L 436.354585 72.312681 
" style="fill:none;stroke:#d4cdcd;stroke-linecap:square;stroke-width:0.3;"/>
     </g>
     <g id="line2d_21">
      <g>
       <use style="stroke:#000000;stroke-width:0.7;" x="45.932062" xlink:href="#m99c3b68a1f" y="72.312681"/>
      </g>
     </g>
     <g id="text_13">
      <!-- 4.000 -->
      <defs>
       <path d="M 32.328125 0 
L 32.328125 17.140625 
L 1.265625 17.140625 
L 1.265625 25.203125 
L 33.9375 71.578125 
L 41.109375 71.578125 
L 41.109375 25.203125 
L 50.78125 25.203125 
L 50.78125 17.140625 
L 41.109375 17.140625 
L 41.109375 0 
z
M 32.328125 25.203125 
L 32.328125 57.46875 
L 9.90625 25.203125 
z
" id="ArialMT-34"/>
      </defs>
      <g transform="translate(21.56688 74.796442)scale(0.0694 -0.0694)">
       <use xlink:href="#ArialMT-34"/>
       <use x="55.615234" xlink:href="#ArialMT-2e"/>
       <use x="83.398438" xlink:href="#ArialMT-30"/>
       <use x="139.013672" xlink:href="#ArialMT-30"/>
       <use x="194.628906" xlink:href="#ArialMT-30"/>
      </g>
     </g>
    </g>
    <g id="ytick_10">
     <g id="line2d_22">
      <path clip-path="url(#p0d9abe4412)" d="M 45.932062 44.683779 
L 436.354585 44.683779 
" style="fill:none;stroke:#d4cdcd;stroke-linecap:square;stroke-width:0.3;"/>
     </g>
     <g id="line2d_23">
      <g>
       <use style="stroke:#000000;stroke-width:0.7;" x="45.932062" xlink:href="#m99c3b68a1f" y="44.683779"/>
      </g>
     </g>
     <g id="text_14">
      <!-- 4.500 -->
      <g transform="translate(21.56688 47.16754)scale(0.0694 -0.0694)">
       <use xlink:href="#ArialMT-34"/>
       <use x="55.615234" xlink:href="#ArialMT-2e"/>
       <use x="83.398438" xlink:href="#ArialMT-35"/>
       <use x="139.013672" xlink:href="#ArialMT-30"/>
       <use x="194.628906" xlink:href="#ArialMT-30"/>
      </g>
     </g>
    </g>
    <g id="ytick_11">
     <g id="line2d_24">
      <path clip-path="url(#p0d9abe4412)" d="M 45.932062 17.054878 
L 436.354585 17.054878 
" style="fill:none;stroke:#d4cdcd;stroke-linecap:square;stroke-width:0.3;"/>
     </g>
     <g id="line2d_25">
      <g>
       <use style="stroke:#000000;stroke-width:0.7;" x="45.932062" xlink:href="#m99c3b68a1f" y="17.054878"/>
      </g>
     </g>
     <g id="text_15">
      <!-- 5.000 -->
      <g transform="translate(21.56688 19.538639)scale(0.0694 -0.0694)">
       <use xlink:href="#ArialMT-35"/>
       <use x="55.615234" xlink:href="#ArialMT-2e"/>
       <use x="83.398438" xlink:href="#ArialMT-30"/>
       <use x="139.013672" xlink:href="#ArialMT-30"/>
       <use x="194.628906" xlink:href="#ArialMT-30"/>
      </g>
     </g>
    </g>
    <g id="ytick_12">
     <g id="line2d_26">
      <defs>
       <path d="M 0 0 
L -2 0 
" id="m6c0e47bf0c" style="stroke:#000000;stroke-width:0.6;"/>
      </defs>
      <g>
       <use style="stroke:#000000;stroke-width:0.6;" x="45.932062" xlink:href="#m6c0e47bf0c" y="293.343895"/>
      </g>
     </g>
    </g>
    <g id="ytick_13">
     <g id="line2d_27">
      <g>
       <use style="stroke:#000000;stroke-width:0.6;" x="45.932062" xlink:href="#m6c0e47bf0c" y="279.529444"/>
      </g>
     </g>
    </g>
    <g id="ytick_14">
     <g id="line2d_28">
      <g>
       <use style="stroke:#000000;stroke-width:0.6;" x="45.932062" xlink:href="#m6c0e47bf0c" y="265.714993"/>
      </g>
     </g>
    </g>
    <g id="ytick_15">
     <g id="line2d_29">
      <g>
       <use style="stroke:#000000;stroke-width:0.6;" x="45.932062" xlink:href="#m6c0e47bf0c" y="251.900542"/>
      </g>
     </g>
    </g>
    <g id="ytick_16">
     <g id="line2d_30">
      <g>
       <use style="stroke:#000000;stroke-width:0.6;" x="45.932062" xlink:href="#m6c0e47bf0c" y="238.086091"/>
      </g>
     </g>
    </g>
    <g id="ytick_17">
     <g id="line2d_31">
      <g>
       <use style="stroke:#000000;stroke-width:0.6;" x="45.932062" xlink:href="#m6c0e47bf0c" y="224.27164"/>
      </g>
     </g>
    </g>
    <g id="ytick_18">
     <g id="line2d_32">
      <g>
       <use style="stroke:#000000;stroke-width:0.6;" x="45.932062" xlink:href="#m6c0e47bf0c" y="210.45719"/>
      </g>
     </g>
    </g>
    <g id="ytick_19">
     <g id="line2d_33">
      <g>
       <use style="stroke:#000000;stroke-width:0.6;" x="45.932062" xlink:href="#m6c0e47bf0c" y="196.642739"/>
      </g>
     </g>
    </g>
    <g id="ytick_20">
     <g id="line2d_34">
      <g>
       <use style="stroke:#000000;stroke-width:0.6;" x="45.932062" xlink:href="#m6c0e47bf0c" y="182.828288"/>
      </g>
     </g>
    </g>
    <g id="ytick_21">
     <g id="line2d_35">
      <g>
       <use style="stroke:#000000;stroke-width:0.6;" x="45.932062" xlink:href="#m6c0e47bf0c" y="169.013837"/>
      </g>
     </g>
    </g>
    <g id="ytick_22">
     <g id="line2d_36">
      <g>
       <use style="stroke:#000000;stroke-width:0.6;" x="45.932062" xlink:href="#m6c0e47bf0c" y="155.199386"/>
      </g>
     </g>
    </g>
    <g id="ytick_23">
     <g id="line2d_37">
      <g>
       <use style="stroke:#000000;stroke-width:0.6;" x="45.932062" xlink:href="#m6c0e47bf0c" y="141.384935"/>
      </g>
     </g>
    </g>
    <g id="ytick_24">
     <g id="line2d_38">
      <g>
       <use style="stroke:#000000;stroke-width:0.6;" x="45.932062" xlink:href="#m6c0e47bf0c" y="127.570484"/>
      </g>
     </g>
    </g>
    <g id="ytick_25">
     <g id="line2d_39">
      <g>
       <use style="stroke:#000000;stroke-width:0.6;" x="45.932062" xlink:href="#m6c0e47bf0c" y="113.756034"/>
      </g>
     </g>
    </g>
    <g id="ytick_26">
     <g id="line2d_40">
      <g>
       <use style="stroke:#000000;stroke-width:0.6;" x="45.932062" xlink:href="#m6c0e47bf0c" y="99.941583"/>
      </g>
     </g>
    </g>
    <g id="ytick_27">
     <g id="line2d_41">
      <g>
       <use style="stroke:#000000;stroke-width:0.6;" x="45.932062" xlink:href="#m6c0e47bf0c" y="86.127132"/>
      </g>
     </g>
    </g>
    <g id="ytick_28">
     <g id="line2d_42">
      <g>
       <use style="stroke:#000000;stroke-width:0.6;" x="45.932062" xlink:href="#m6c0e47bf0c" y="72.312681"/>
      </g>
     </g>
    </g>
    <g id="ytick_29">
     <g id="line2d_43">
      <g>
       <use style="stroke:#000000;stroke-width:0.6;" x="45.932062" xlink:href="#m6c0e47bf0c" y="58.49823"/>
      </g>
     </g>
    </g>
    <g id="ytick_30">
     <g id="line2d_44">
      <g>
       <use style="stroke:#000000;stroke-width:0.6;" x="45.932062" xlink:href="#m6c0e47bf0c" y="44.683779"/>
      </g>
     </g>
    </g>
    <g id="ytick_31">
     <g id="line2d_45">
      <g>
       <use style="stroke:#000000;stroke-width:0.6;" x="45.932062" xlink:href="#m6c0e47bf0c" y="30.869328"/>
      </g>
     </g>
    </g>
    <g id="ytick_32">
     <g id="line2d_46">
      <g>
       <use style="stroke:#000000;stroke-width:0.6;" x="45.932062" xlink:href="#m6c0e47bf0c" y="17.054878"/>
      </g>
     </g>
    </g>
    <g id="text_16">
     <!-- Cases [#] -->
     <defs>
      <path d="M 53.078125 26.3125 
L 67.09375 21.875 
Q 63.875 10.15625 56.375 4.46875 
Q 48.875 -1.21875 37.359375 -1.21875 
Q 23.09375 -1.21875 13.90625 8.515625 
Q 4.734375 18.265625 4.734375 35.15625 
Q 4.734375 53.03125 13.953125 62.90625 
Q 23.1875 72.796875 38.234375 72.796875 
Q 51.375 72.796875 59.578125 65.046875 
Q 64.453125 60.453125 66.890625 51.859375 
L 52.59375 48.4375 
Q 51.3125 54 47.28125 57.21875 
Q 43.265625 60.453125 37.5 60.453125 
Q 29.546875 60.453125 24.578125 54.734375 
Q 19.625 49.03125 19.625 36.234375 
Q 19.625 22.65625 24.5 16.890625 
Q 29.390625 11.140625 37.203125 11.140625 
Q 42.96875 11.140625 47.109375 14.796875 
Q 51.265625 18.453125 53.078125 26.3125 
z
" id="Arial-BoldMT-43"/>
      <path d="M 2.34375 14.796875 
L 16.109375 16.890625 
Q 17 12.890625 19.671875 10.8125 
Q 22.359375 8.734375 27.203125 8.734375 
Q 32.515625 8.734375 35.203125 10.6875 
Q 37.015625 12.0625 37.015625 14.359375 
Q 37.015625 15.921875 36.03125 16.9375 
Q 35.015625 17.921875 31.453125 18.75 
Q 14.84375 22.40625 10.40625 25.4375 
Q 4.25 29.640625 4.25 37.109375 
Q 4.25 43.84375 9.5625 48.4375 
Q 14.890625 53.03125 26.078125 53.03125 
Q 36.71875 53.03125 41.890625 49.5625 
Q 47.078125 46.09375 49.03125 39.3125 
L 36.078125 36.921875 
Q 35.25 39.9375 32.921875 41.546875 
Q 30.609375 43.171875 26.3125 43.171875 
Q 20.90625 43.171875 18.5625 41.65625 
Q 17 40.578125 17 38.875 
Q 17 37.40625 18.359375 36.375 
Q 20.21875 35.015625 31.171875 32.515625 
Q 42.140625 30.03125 46.484375 26.421875 
Q 50.78125 22.75 50.78125 16.21875 
Q 50.78125 9.078125 44.828125 3.953125 
Q 38.875 -1.171875 27.203125 -1.171875 
Q 16.609375 -1.171875 10.421875 3.125 
Q 4.25 7.421875 2.34375 14.796875 
z
" id="Arial-BoldMT-73"/>
      <path id="Arial-BoldMT-20"/>
      <path d="M 7.125 -20.171875 
L 7.125 71.578125 
L 31.453125 71.578125 
L 31.453125 60.796875 
L 20.171875 60.796875 
L 20.171875 -9.375 
L 31.453125 -9.375 
L 31.453125 -20.171875 
z
" id="Arial-BoldMT-5b"/>
      <path d="M 7.515625 17.828125 
L 0.875 17.828125 
L 0.875 28.5625 
L 9.671875 28.5625 
L 12.59375 42.96875 
L 0.875 42.96875 
L 0.875 53.765625 
L 14.796875 53.765625 
L 18.65625 72.796875 
L 29.59375 72.796875 
L 25.734375 53.765625 
L 36.53125 53.765625 
L 40.28125 72.796875 
L 51.609375 72.796875 
L 47.703125 53.765625 
L 54.4375 53.765625 
L 54.4375 42.96875 
L 45.515625 42.96875 
L 42.578125 28.5625 
L 54.4375 28.5625 
L 54.4375 17.828125 
L 40.375 17.828125 
L 36.53125 -1.21875 
L 25.640625 -1.21875 
L 29.390625 17.828125 
L 18.5625 17.828125 
L 14.703125 -1.21875 
L 3.65625 -1.21875 
z
M 23.578125 42.96875 
L 20.703125 28.5625 
L 31.546875 28.5625 
L 34.375 42.96875 
z
" id="Arial-BoldMT-23"/>
      <path d="M 26.171875 71.578125 
L 26.171875 -20.171875 
L 1.859375 -20.171875 
L 1.859375 -9.375 
L 13.140625 -9.375 
L 13.140625 60.890625 
L 1.859375 60.890625 
L 1.859375 71.578125 
z
" id="Arial-BoldMT-5d"/>
     </defs>
     <g transform="translate(13.549693 177.431417)rotate(-90)scale(0.1 -0.1)">
      <use xlink:href="#Arial-BoldMT-43"/>
      <use x="72.216797" xlink:href="#Arial-BoldMT-61"/>
      <use x="127.832031" xlink:href="#Arial-BoldMT-73"/>
      <use x="183.447266" xlink:href="#Arial-BoldMT-65"/>
      <use x="239.0625" xlink:href="#Arial-BoldMT-73"/>
      <use x="294.677734" xlink:href="#Arial-BoldMT-20"/>
      <use x="322.460938" xlink:href="#Arial-BoldMT-5b"/>
      <use x="355.761719" xlink:href="#Arial-BoldMT-23"/>
      <use x="411.376953" xlink:href="#Arial-BoldMT-5d"/>
     </g>
    </g>
   </g>
   <g id="line2d_47">
    <path clip-path="url(#p0d9abe4412)" d="M 63.67854 40.263155 
L 241.143323 42.970787 
L 418.608107 43.191819 
" style="fill:none;stroke:#003781;stroke-linecap:square;stroke-width:1.5;"/>
    <defs>
     <path d="M -1.5 -2.598076 
L -3 -0 
L -1.5 2.598076 
L 1.5 2.598076 
L 3 0 
L 1.5 -2.598076 
z
" id="mc7e80274f4" style="stroke:#003781;stroke-linejoin:miter;"/>
    </defs>
    <g clip-path="url(#p0d9abe4412)">
     <use style="fill:#003781;stroke:#003781;stroke-linejoin:miter;" x="63.67854" xlink:href="#mc7e80274f4" y="40.263155"/>
     <use style="fill:#003781;stroke:#003781;stroke-linejoin:miter;" x="241.143323" xlink:href="#mc7e80274f4" y="42.970787"/>
     <use style="fill:#003781;stroke:#003781;stroke-linejoin:miter;" x="418.608107" xlink:href="#mc7e80274f4" y="43.191819"/>
    </g>
   </g>
   <g id="line2d_48">
    <path clip-path="url(#p0d9abe4412)" d="M 63.67854 83.751046 
L 241.143323 87.121772 
L 418.608107 87.232288 
" style="fill:none;stroke:#96dcfa;stroke-linecap:square;stroke-width:1.5;"/>
    <defs>
     <path d="M -1.5 -2.598076 
L -3 -0 
L -1.5 2.598076 
L 1.5 2.598076 
L 3 0 
L 1.5 -2.598076 
z
" id="m69c2b3f7a6" style="stroke:#96dcfa;stroke-linejoin:miter;"/>
    </defs>
    <g clip-path="url(#p0d9abe4412)">
     <use style="fill:#96dcfa;stroke:#96dcfa;stroke-linejoin:miter;" x="63.67854" xlink:href="#m69c2b3f7a6" y="83.751046"/>
     <use style="fill:#96dcfa;stroke:#96dcfa;stroke-linejoin:miter;" x="241.143323" xlink:href="#m69c2b3f7a6" y="87.121772"/>
     <use style="fill:#96dcfa;stroke:#96dcfa;stroke-linejoin:miter;" x="418.608107" xlink:href="#m69c2b3f7a6" y="87.232288"/>
    </g>
   </g>
   <g id="line2d_49">
    <path clip-path="url(#p0d9abe4412)" d="M 63.67854 186.696334 
L 241.143323 187.912006 
L 418.608107 188.133037 
" style="fill:none;stroke:#ccdd61;stroke-linecap:square;stroke-width:1.5;"/>
    <defs>
     <path d="M -1.5 -2.598076 
L -3 -0 
L -1.5 2.598076 
L 1.5 2.598076 
L 3 0 
L 1.5 -2.598076 
z
" id="ma61116cf94" style="stroke:#ccdd61;stroke-linejoin:miter;"/>
    </defs>
    <g clip-path="url(#p0d9abe4412)">
     <use style="fill:#ccdd61;stroke:#ccdd61;stroke-linejoin:miter;" x="63.67854" xlink:href="#ma61116cf94" y="186.696334"/>
     <use style="fill:#ccdd61;stroke:#ccdd61;stroke-linejoin:miter;" x="241.143323" xlink:href="#ma61116cf94" y="187.912006"/>
     <use style="fill:#ccdd61;stroke:#ccdd61;stroke-linejoin:miter;" x="418.608107" xlink:href="#ma61116cf94" y="188.133037"/>
    </g>
   </g>
   <g id="line2d_50">
    <path clip-path="url(#p0d9abe4412)" d="M 63.67854 47.612443 
L 241.143323 51.369974 
L 418.608107 53.303997 
" style="fill:none;stroke:#fdd25c;stroke-linecap:square;stroke-width:1.5;"/>
    <defs>
     <path d="M -1.5 -2.598076 
L -3 -0 
L -1.5 2.598076 
L 1.5 2.598076 
L 3 0 
L 1.5 -2.598076 
z
" id="m9b11d97263" style="stroke:#fdd25c;stroke-linejoin:miter;"/>
    </defs>
    <g clip-path="url(#p0d9abe4412)">
     <use style="fill:#fdd25c;stroke:#fdd25c;stroke-linejoin:miter;" x="63.67854" xlink:href="#m9b11d97263" y="47.612443"/>
     <use style="fill:#fdd25c;stroke:#fdd25c;stroke-linejoin:miter;" x="241.143323" xlink:href="#m9b11d97263" y="51.369974"/>
     <use style="fill:#fdd25c;stroke:#fdd25c;stroke-linejoin:miter;" x="418.608107" xlink:href="#m9b11d97263" y="53.303997"/>
    </g>
   </g>
   <g id="patch_3">
    <path d="M 45.932062 293.343895 
L 45.932062 17.054878 
" style="fill:none;stroke:#000000;stroke-linecap:square;stroke-linejoin:miter;stroke-width:0.5;"/>
   </g>
   <g id="patch_4">
    <path d="M 45.932062 293.343895 
L 436.354585 293.343895 
" style="fill:none;stroke:#000000;stroke-linecap:square;stroke-linejoin:miter;stroke-width:0.5;"/>
   </g>
   <g id="legend_1">
    <g id="patch_5">
     <path d="M 49.985062 290.448895 
L 103.589605 290.448895 
Q 104.747605 290.448895 104.747605 289.290895 
L 104.747605 257.057784 
Q 104.747605 255.899784 103.589605 255.899784 
L 49.985062 255.899784 
Q 48.827062 255.899784 48.827062 257.057784 
L 48.827062 289.290895 
Q 48.827062 290.448895 49.985062 290.448895 
z
" style="fill:#ffffff;stroke:#cccccc;stroke-linejoin:miter;stroke-width:0.3;"/>
    </g>
    <g id="line2d_51">
     <path d="M 51.143062 260.350846 
L 62.723062 260.350846 
" style="fill:none;stroke:#003781;stroke-linecap:square;stroke-width:1.5;"/>
    </g>
    <g id="line2d_52">
     <g>
      <use style="fill:#003781;stroke:#003781;stroke-linejoin:miter;" x="56.933062" xlink:href="#mc7e80274f4" y="260.350846"/>
     </g>
    </g>
    <g id="text_17">
     <!-- Department 1 -->
     <defs>
      <path d="M 7.71875 0 
L 7.71875 71.578125 
L 32.375 71.578125 
Q 40.71875 71.578125 45.125 70.5625 
Q 51.265625 69.140625 55.609375 65.4375 
Q 61.28125 60.640625 64.078125 53.1875 
Q 66.890625 45.75 66.890625 36.1875 
Q 66.890625 28.03125 64.984375 21.734375 
Q 63.09375 15.4375 60.109375 11.296875 
Q 57.125 7.171875 53.578125 4.796875 
Q 50.046875 2.4375 45.046875 1.21875 
Q 40.046875 0 33.546875 0 
z
M 17.1875 8.453125 
L 32.46875 8.453125 
Q 39.546875 8.453125 43.578125 9.765625 
Q 47.609375 11.078125 50 13.484375 
Q 53.375 16.84375 55.25 22.53125 
Q 57.125 28.21875 57.125 36.328125 
Q 57.125 47.5625 53.4375 53.59375 
Q 49.75 59.625 44.484375 61.671875 
Q 40.671875 63.140625 32.234375 63.140625 
L 17.1875 63.140625 
z
" id="ArialMT-44"/>
      <path d="M 42.09375 16.703125 
L 51.171875 15.578125 
Q 49.03125 7.625 43.21875 3.21875 
Q 37.40625 -1.171875 28.375 -1.171875 
Q 17 -1.171875 10.328125 5.828125 
Q 3.65625 12.84375 3.65625 25.484375 
Q 3.65625 38.578125 10.390625 45.796875 
Q 17.140625 53.03125 27.875 53.03125 
Q 38.28125 53.03125 44.875 45.953125 
Q 51.46875 38.875 51.46875 26.03125 
Q 51.46875 25.25 51.421875 23.6875 
L 12.75 23.6875 
Q 13.234375 15.140625 17.578125 10.59375 
Q 21.921875 6.0625 28.421875 6.0625 
Q 33.25 6.0625 36.671875 8.59375 
Q 40.09375 11.140625 42.09375 16.703125 
z
M 13.234375 30.90625 
L 42.1875 30.90625 
Q 41.609375 37.453125 38.875 40.71875 
Q 34.671875 45.796875 27.984375 45.796875 
Q 21.921875 45.796875 17.796875 41.75 
Q 13.671875 37.703125 13.234375 30.90625 
z
" id="ArialMT-65"/>
      <path d="M 6.59375 -19.875 
L 6.59375 51.859375 
L 14.59375 51.859375 
L 14.59375 45.125 
Q 17.4375 49.078125 21 51.046875 
Q 24.5625 53.03125 29.640625 53.03125 
Q 36.28125 53.03125 41.359375 49.609375 
Q 46.4375 46.1875 49.015625 39.953125 
Q 51.609375 33.734375 51.609375 26.3125 
Q 51.609375 18.359375 48.75 11.984375 
Q 45.90625 5.609375 40.453125 2.21875 
Q 35.015625 -1.171875 29 -1.171875 
Q 24.609375 -1.171875 21.109375 0.6875 
Q 17.625 2.546875 15.375 5.375 
L 15.375 -19.875 
z
M 14.546875 25.640625 
Q 14.546875 15.625 18.59375 10.84375 
Q 22.65625 6.0625 28.421875 6.0625 
Q 34.28125 6.0625 38.453125 11.015625 
Q 42.625 15.96875 42.625 26.375 
Q 42.625 36.28125 38.546875 41.203125 
Q 34.46875 46.140625 28.8125 46.140625 
Q 23.1875 46.140625 18.859375 40.890625 
Q 14.546875 35.640625 14.546875 25.640625 
z
" id="ArialMT-70"/>
      <path d="M 40.4375 6.390625 
Q 35.546875 2.25 31.03125 0.53125 
Q 26.515625 -1.171875 21.34375 -1.171875 
Q 12.796875 -1.171875 8.203125 3 
Q 3.609375 7.171875 3.609375 13.671875 
Q 3.609375 17.484375 5.34375 20.625 
Q 7.078125 23.78125 9.890625 25.6875 
Q 12.703125 27.59375 16.21875 28.5625 
Q 18.796875 29.25 24.03125 29.890625 
Q 34.671875 31.15625 39.703125 32.90625 
Q 39.75 34.71875 39.75 35.203125 
Q 39.75 40.578125 37.25 42.78125 
Q 33.890625 45.75 27.25 45.75 
Q 21.046875 45.75 18.09375 43.578125 
Q 15.140625 41.40625 13.71875 35.890625 
L 5.125 37.0625 
Q 6.296875 42.578125 8.984375 45.96875 
Q 11.671875 49.359375 16.75 51.1875 
Q 21.828125 53.03125 28.515625 53.03125 
Q 35.15625 53.03125 39.296875 51.46875 
Q 43.453125 49.90625 45.40625 47.53125 
Q 47.359375 45.171875 48.140625 41.546875 
Q 48.578125 39.3125 48.578125 33.453125 
L 48.578125 21.734375 
Q 48.578125 9.46875 49.140625 6.21875 
Q 49.703125 2.984375 51.375 0 
L 42.1875 0 
Q 40.828125 2.734375 40.4375 6.390625 
z
M 39.703125 26.03125 
Q 34.90625 24.078125 25.34375 22.703125 
Q 19.921875 21.921875 17.671875 20.9375 
Q 15.4375 19.96875 14.203125 18.09375 
Q 12.984375 16.21875 12.984375 13.921875 
Q 12.984375 10.40625 15.640625 8.0625 
Q 18.3125 5.71875 23.4375 5.71875 
Q 28.515625 5.71875 32.46875 7.9375 
Q 36.421875 10.15625 38.28125 14.015625 
Q 39.703125 17 39.703125 22.796875 
z
" id="ArialMT-61"/>
      <path d="M 6.5 0 
L 6.5 51.859375 
L 14.40625 51.859375 
L 14.40625 44 
Q 17.4375 49.515625 20 51.265625 
Q 22.5625 53.03125 25.640625 53.03125 
Q 30.078125 53.03125 34.671875 50.203125 
L 31.640625 42.046875 
Q 28.421875 43.953125 25.203125 43.953125 
Q 22.3125 43.953125 20.015625 42.21875 
Q 17.71875 40.484375 16.75 37.40625 
Q 15.28125 32.71875 15.28125 27.15625 
L 15.28125 0 
z
" id="ArialMT-72"/>
      <path d="M 25.78125 7.859375 
L 27.046875 0.09375 
Q 23.34375 -0.6875 20.40625 -0.6875 
Q 15.625 -0.6875 12.984375 0.828125 
Q 10.359375 2.34375 9.28125 4.8125 
Q 8.203125 7.28125 8.203125 15.1875 
L 8.203125 45.015625 
L 1.765625 45.015625 
L 1.765625 51.859375 
L 8.203125 51.859375 
L 8.203125 64.703125 
L 16.9375 69.96875 
L 16.9375 51.859375 
L 25.78125 51.859375 
L 25.78125 45.015625 
L 16.9375 45.015625 
L 16.9375 14.703125 
Q 16.9375 10.9375 17.40625 9.859375 
Q 17.875 8.796875 18.921875 8.15625 
Q 19.96875 7.515625 21.921875 7.515625 
Q 23.390625 7.515625 25.78125 7.859375 
z
" id="ArialMT-74"/>
      <path d="M 6.59375 0 
L 6.59375 51.859375 
L 14.453125 51.859375 
L 14.453125 44.578125 
Q 16.890625 48.390625 20.9375 50.703125 
Q 25 53.03125 30.171875 53.03125 
Q 35.9375 53.03125 39.625 50.640625 
Q 43.3125 48.25 44.828125 43.953125 
Q 50.984375 53.03125 60.84375 53.03125 
Q 68.5625 53.03125 72.703125 48.75 
Q 76.859375 44.484375 76.859375 35.59375 
L 76.859375 0 
L 68.109375 0 
L 68.109375 32.671875 
Q 68.109375 37.9375 67.25 40.25 
Q 66.40625 42.578125 64.15625 43.984375 
Q 61.921875 45.40625 58.890625 45.40625 
Q 53.421875 45.40625 49.796875 41.765625 
Q 46.1875 38.140625 46.1875 30.125 
L 46.1875 0 
L 37.40625 0 
L 37.40625 33.6875 
Q 37.40625 39.546875 35.25 42.46875 
Q 33.109375 45.40625 28.21875 45.40625 
Q 24.515625 45.40625 21.359375 43.453125 
Q 18.21875 41.5 16.796875 37.734375 
Q 15.375 33.984375 15.375 26.90625 
L 15.375 0 
z
" id="ArialMT-6d"/>
      <path d="M 6.59375 0 
L 6.59375 51.859375 
L 14.5 51.859375 
L 14.5 44.484375 
Q 20.21875 53.03125 31 53.03125 
Q 35.6875 53.03125 39.625 51.34375 
Q 43.5625 49.65625 45.515625 46.921875 
Q 47.46875 44.1875 48.25 40.4375 
Q 48.734375 37.984375 48.734375 31.890625 
L 48.734375 0 
L 39.9375 0 
L 39.9375 31.546875 
Q 39.9375 36.921875 38.90625 39.578125 
Q 37.890625 42.234375 35.28125 43.8125 
Q 32.671875 45.40625 29.15625 45.40625 
Q 23.53125 45.40625 19.453125 41.84375 
Q 15.375 38.28125 15.375 28.328125 
L 15.375 0 
z
" id="ArialMT-6e"/>
      <path id="ArialMT-20"/>
     </defs>
     <g transform="translate(67.355062 262.377346)scale(0.0579 -0.0579)">
      <use xlink:href="#ArialMT-44"/>
      <use x="72.216797" xlink:href="#ArialMT-65"/>
      <use x="127.832031" xlink:href="#ArialMT-70"/>
      <use x="183.447266" xlink:href="#ArialMT-61"/>
      <use x="239.0625" xlink:href="#ArialMT-72"/>
      <use x="272.363281" xlink:href="#ArialMT-74"/>
      <use x="300.146484" xlink:href="#ArialMT-6d"/>
      <use x="383.447266" xlink:href="#ArialMT-65"/>
      <use x="439.0625" xlink:href="#ArialMT-6e"/>
      <use x="494.677734" xlink:href="#ArialMT-74"/>
      <use x="522.460938" xlink:href="#ArialMT-20"/>
      <use x="550.244141" xlink:href="#ArialMT-31"/>
     </g>
    </g>
    <g id="line2d_53">
     <path d="M 51.143062 268.558171 
L 62.723062 268.558171 
" style="fill:none;stroke:#96dcfa;stroke-linecap:square;stroke-width:1.5;"/>
    </g>
    <g id="line2d_54">
     <g>
      <use style="fill:#96dcfa;stroke:#96dcfa;stroke-linejoin:miter;" x="56.933062" xlink:href="#m69c2b3f7a6" y="268.558171"/>
     </g>
    </g>
    <g id="text_18">
     <!-- Department 2 -->
     <g transform="translate(67.355062 270.584671)scale(0.0579 -0.0579)">
      <use xlink:href="#ArialMT-44"/>
      <use x="72.216797" xlink:href="#ArialMT-65"/>
      <use x="127.832031" xlink:href="#ArialMT-70"/>
      <use x="183.447266" xlink:href="#ArialMT-61"/>
      <use x="239.0625" xlink:href="#ArialMT-72"/>
      <use x="272.363281" xlink:href="#ArialMT-74"/>
      <use x="300.146484" xlink:href="#ArialMT-6d"/>
      <use x="383.447266" xlink:href="#ArialMT-65"/>
      <use x="439.0625" xlink:href="#ArialMT-6e"/>
      <use x="494.677734" xlink:href="#ArialMT-74"/>
      <use x="522.460938" xlink:href="#ArialMT-20"/>
      <use x="550.244141" xlink:href="#ArialMT-32"/>
     </g>
    </g>
    <g id="line2d_55">
     <path d="M 51.143062 276.765496 
L 62.723062 276.765496 
" style="fill:none;stroke:#ccdd61;stroke-linecap:square;stroke-width:1.5;"/>
    </g>
    <g id="line2d_56">
     <g>
      <use style="fill:#ccdd61;stroke:#ccdd61;stroke-linejoin:miter;" x="56.933062" xlink:href="#ma61116cf94" y="276.765496"/>
     </g>
    </g>
    <g id="text_19">
     <!-- Department 3 -->
     <g transform="translate(67.355062 278.791996)scale(0.0579 -0.0579)">
      <use xlink:href="#ArialMT-44"/>
      <use x="72.216797" xlink:href="#ArialMT-65"/>
      <use x="127.832031" xlink:href="#ArialMT-70"/>
      <use x="183.447266" xlink:href="#ArialMT-61"/>
      <use x="239.0625" xlink:href="#ArialMT-72"/>
      <use x="272.363281" xlink:href="#ArialMT-74"/>
      <use x="300.146484" xlink:href="#ArialMT-6d"/>
      <use x="383.447266" xlink:href="#ArialMT-65"/>
      <use x="439.0625" xlink:href="#ArialMT-6e"/>
      <use x="494.677734" xlink:href="#ArialMT-74"/>
      <use x="522.460938" xlink:href="#ArialMT-20"/>
      <use x="550.244141" xlink:href="#ArialMT-33"/>
     </g>
    </g>
    <g id="line2d_57">
     <path d="M 51.143062 284.955632 
L 62.723062 284.955632 
" style="fill:none;stroke:#fdd25c;stroke-linecap:square;stroke-width:1.5;"/>
    </g>
    <g id="line2d_58">
     <g>
      <use style="fill:#fdd25c;stroke:#fdd25c;stroke-linejoin:miter;" x="56.933062" xlink:href="#m9b11d97263" y="284.955632"/>
     </g>
    </g>
    <g id="text_20">
     <!-- Department 4 -->
     <g transform="translate(67.355062 286.982132)scale(0.0579 -0.0579)">
      <use xlink:href="#ArialMT-44"/>
      <use x="72.216797" xlink:href="#ArialMT-65"/>
      <use x="127.832031" xlink:href="#ArialMT-70"/>
      <use x="183.447266" xlink:href="#ArialMT-61"/>
      <use x="239.0625" xlink:href="#ArialMT-72"/>
      <use x="272.363281" xlink:href="#ArialMT-74"/>
      <use x="300.146484" xlink:href="#ArialMT-6d"/>
      <use x="383.447266" xlink:href="#ArialMT-65"/>
      <use x="439.0625" xlink:href="#ArialMT-6e"/>
      <use x="494.677734" xlink:href="#ArialMT-74"/>
      <use x="522.460938" xlink:href="#ArialMT-20"/>
      <use x="550.244141" xlink:href="#ArialMT-34"/>
     </g>
    </g>
   </g>
  </g>
 </g>
 <defs>
  <clipPath id="p0d9abe4412">
   <rect height="276.289017" width="390.422524" x="45.932062" y="17.054878"/>
  </clipPath>
 </defs>
</svg>
