<?xml version="1.0" encoding="utf-8" standalone="no"?>
<!DOCTYPE svg PUBLIC "-//W3C//DTD SVG 1.1//EN"
  "http://www.w3.org/Graphics/SVG/1.1/DTD/svg11.dtd">
<!-- Created with matplotlib (http://matplotlib.org/) -->
<svg height="341pt" version="1.1" viewBox="0 0 459 341" width="459pt" xmlns="http://www.w3.org/2000/svg" xmlns:xlink="http://www.w3.org/1999/xlink">
 <defs>
  <style type="text/css">
*{stroke-linecap:butt;stroke-linejoin:round;}
  </style>
 </defs>
 <g id="figure_1">
  <g id="patch_1">
   <path d="M 0 341.097552 
L 459.320616 341.097552 
L 459.320616 0 
L 0 0 
z
" style="fill:#ffffff;"/>
  </g>
  <g id="axes_1">
   <g id="patch_2">
    <path d="M 45.932062 306.987797 
L 436.354585 306.987797 
L 436.354585 42.637194 
L 45.932062 42.637194 
z
" style="fill:#ffffff;"/>
   </g>
   <g id="matplotlib.axis_1">
    <g id="xtick_1">
     <g id="line2d_1"/>
     <g id="text_1">
      <!-- 2015 -->
      <defs>
       <path d="M 50.34375 8.453125 
L 50.34375 0 
L 3.03125 0 
Q 2.9375 3.171875 4.046875 6.109375 
Q 5.859375 10.9375 9.828125 15.625 
Q 13.8125 20.3125 21.34375 26.46875 
Q 33.015625 36.03125 37.109375 41.625 
Q 41.21875 47.21875 41.21875 52.203125 
Q 41.21875 57.421875 37.46875 61 
Q 33.734375 64.59375 27.734375 64.59375 
Q 21.390625 64.59375 17.578125 60.78125 
Q 13.765625 56.984375 13.71875 50.25 
L 4.6875 51.171875 
Q 5.609375 61.28125 11.65625 66.578125 
Q 17.71875 71.875 27.9375 71.875 
Q 38.234375 71.875 44.234375 66.15625 
Q 50.25 60.453125 50.25 52 
Q 50.25 47.703125 48.484375 43.546875 
Q 46.734375 39.40625 42.65625 34.8125 
Q 38.578125 30.21875 29.109375 22.21875 
Q 21.1875 15.578125 18.9375 13.203125 
Q 16.703125 10.84375 15.234375 8.453125 
z
" id="ArialMT-32"/>
       <path d="M 4.15625 35.296875 
Q 4.15625 48 6.765625 55.734375 
Q 9.375 63.484375 14.515625 67.671875 
Q 19.671875 71.875 27.484375 71.875 
Q 33.25 71.875 37.59375 69.546875 
Q 41.9375 67.234375 44.765625 62.859375 
Q 47.609375 58.5 49.21875 52.21875 
Q 50.828125 45.953125 50.828125 35.296875 
Q 50.828125 22.703125 48.234375 14.96875 
Q 45.65625 7.234375 40.5 3 
Q 35.359375 -1.21875 27.484375 -1.21875 
Q 17.140625 -1.21875 11.234375 6.203125 
Q 4.15625 15.140625 4.15625 35.296875 
z
M 13.1875 35.296875 
Q 13.1875 17.671875 17.3125 11.828125 
Q 21.4375 6 27.484375 6 
Q 33.546875 6 37.671875 11.859375 
Q 41.796875 17.71875 41.796875 35.296875 
Q 41.796875 52.984375 37.671875 58.78125 
Q 33.546875 64.59375 27.390625 64.59375 
Q 21.34375 64.59375 17.71875 59.46875 
Q 13.1875 52.9375 13.1875 35.296875 
z
" id="ArialMT-30"/>
       <path d="M 37.25 0 
L 28.46875 0 
L 28.46875 56 
Q 25.296875 52.984375 20.140625 49.953125 
Q 14.984375 46.921875 10.890625 45.40625 
L 10.890625 53.90625 
Q 18.265625 57.375 23.78125 62.296875 
Q 29.296875 67.234375 31.59375 71.875 
L 37.25 71.875 
z
" id="ArialMT-31"/>
       <path d="M 4.15625 18.75 
L 13.375 19.53125 
Q 14.40625 12.796875 18.140625 9.390625 
Q 21.875 6 27.15625 6 
Q 33.5 6 37.890625 10.78125 
Q 42.28125 15.578125 42.28125 23.484375 
Q 42.28125 31 38.0625 35.34375 
Q 33.84375 39.703125 27 39.703125 
Q 22.75 39.703125 19.328125 37.765625 
Q 15.921875 35.84375 13.96875 32.765625 
L 5.71875 33.84375 
L 12.640625 70.609375 
L 48.25 70.609375 
L 48.25 62.203125 
L 19.671875 62.203125 
L 15.828125 42.96875 
Q 22.265625 47.46875 29.34375 47.46875 
Q 38.71875 47.46875 45.15625 40.96875 
Q 51.609375 34.46875 51.609375 24.265625 
Q 51.609375 14.546875 45.953125 7.46875 
Q 39.0625 -1.21875 27.15625 -1.21875 
Q 17.390625 -1.21875 11.203125 4.25 
Q 5.03125 9.71875 4.15625 18.75 
z
" id="ArialMT-35"/>
      </defs>
      <g transform="translate(103.283901 315.455319)scale(0.0694 -0.0694)">
       <use xlink:href="#ArialMT-32"/>
       <use x="55.615234" xlink:href="#ArialMT-30"/>
       <use x="111.230469" xlink:href="#ArialMT-31"/>
       <use x="166.845703" xlink:href="#ArialMT-35"/>
      </g>
     </g>
    </g>
    <g id="xtick_2">
     <g id="line2d_2"/>
     <g id="text_2">
      <!-- 2016 -->
      <defs>
       <path d="M 49.75 54.046875 
L 41.015625 53.375 
Q 39.84375 58.546875 37.703125 60.890625 
Q 34.125 64.65625 28.90625 64.65625 
Q 24.703125 64.65625 21.53125 62.3125 
Q 17.390625 59.28125 14.984375 53.46875 
Q 12.59375 47.65625 12.5 36.921875 
Q 15.671875 41.75 20.265625 44.09375 
Q 24.859375 46.4375 29.890625 46.4375 
Q 38.671875 46.4375 44.84375 39.96875 
Q 51.03125 33.5 51.03125 23.25 
Q 51.03125 16.5 48.125 10.71875 
Q 45.21875 4.9375 40.140625 1.859375 
Q 35.0625 -1.21875 28.609375 -1.21875 
Q 17.625 -1.21875 10.6875 6.859375 
Q 3.765625 14.9375 3.765625 33.5 
Q 3.765625 54.25 11.421875 63.671875 
Q 18.109375 71.875 29.4375 71.875 
Q 37.890625 71.875 43.28125 67.140625 
Q 48.6875 62.40625 49.75 54.046875 
z
M 13.875 23.1875 
Q 13.875 18.65625 15.796875 14.5 
Q 17.71875 10.359375 21.1875 8.171875 
Q 24.65625 6 28.46875 6 
Q 34.03125 6 38.03125 10.484375 
Q 42.046875 14.984375 42.046875 22.703125 
Q 42.046875 30.125 38.078125 34.390625 
Q 34.125 38.671875 28.125 38.671875 
Q 22.171875 38.671875 18.015625 34.390625 
Q 13.875 30.125 13.875 23.1875 
z
" id="ArialMT-36"/>
      </defs>
      <g transform="translate(233.424742 315.455319)scale(0.0694 -0.0694)">
       <use xlink:href="#ArialMT-32"/>
       <use x="55.615234" xlink:href="#ArialMT-30"/>
       <use x="111.230469" xlink:href="#ArialMT-31"/>
       <use x="166.845703" xlink:href="#ArialMT-36"/>
      </g>
     </g>
    </g>
    <g id="xtick_3">
     <g id="line2d_3"/>
     <g id="text_3">
      <!-- 2017 -->
      <defs>
       <path d="M 4.734375 62.203125 
L 4.734375 70.65625 
L 51.078125 70.65625 
L 51.078125 63.8125 
Q 44.234375 56.546875 37.515625 44.484375 
Q 30.8125 32.421875 27.15625 19.671875 
Q 24.515625 10.6875 23.78125 0 
L 14.75 0 
Q 14.890625 8.453125 18.0625 20.40625 
Q 21.234375 32.375 27.171875 43.484375 
Q 33.109375 54.59375 39.796875 62.203125 
z
" id="ArialMT-37"/>
      </defs>
      <g transform="translate(363.565583 315.455319)scale(0.0694 -0.0694)">
       <use xlink:href="#ArialMT-32"/>
       <use x="55.615234" xlink:href="#ArialMT-30"/>
       <use x="111.230469" xlink:href="#ArialMT-31"/>
       <use x="166.845703" xlink:href="#ArialMT-37"/>
      </g>
     </g>
    </g>
    <g id="text_4">
     <!-- year -->
     <defs>
      <path d="M 0.6875 51.859375 
L 15.28125 51.859375 
L 27.6875 15.046875 
L 39.796875 51.859375 
L 54 51.859375 
L 35.6875 1.953125 
L 32.421875 -7.078125 
Q 30.609375 -11.625 28.96875 -14.015625 
Q 27.34375 -16.40625 25.21875 -17.890625 
Q 23.09375 -19.390625 19.984375 -20.21875 
Q 16.890625 -21.046875 12.984375 -21.046875 
Q 9.03125 -21.046875 5.21875 -20.21875 
L 4 -9.46875 
Q 7.234375 -10.109375 9.8125 -10.109375 
Q 14.59375 -10.109375 16.890625 -7.296875 
Q 19.1875 -4.5 20.40625 -0.140625 
z
" id="Arial-BoldMT-79"/>
      <path d="M 37.203125 16.5 
L 50.875 14.203125 
Q 48.25 6.6875 42.546875 2.75 
Q 36.859375 -1.171875 28.328125 -1.171875 
Q 14.796875 -1.171875 8.296875 7.671875 
Q 3.171875 14.75 3.171875 25.53125 
Q 3.171875 38.421875 9.90625 45.71875 
Q 16.65625 53.03125 26.953125 53.03125 
Q 38.53125 53.03125 45.21875 45.390625 
Q 51.90625 37.75 51.609375 21.96875 
L 17.234375 21.96875 
Q 17.390625 15.875 20.5625 12.46875 
Q 23.734375 9.078125 28.46875 9.078125 
Q 31.6875 9.078125 33.875 10.828125 
Q 36.078125 12.59375 37.203125 16.5 
z
M 37.984375 30.375 
Q 37.84375 36.328125 34.90625 39.421875 
Q 31.984375 42.53125 27.78125 42.53125 
Q 23.296875 42.53125 20.359375 39.265625 
Q 17.4375 35.984375 17.484375 30.375 
z
" id="Arial-BoldMT-65"/>
      <path d="M 17.4375 36.03125 
L 4.984375 38.28125 
Q 7.078125 45.796875 12.203125 49.40625 
Q 17.328125 53.03125 27.4375 53.03125 
Q 36.625 53.03125 41.109375 50.859375 
Q 45.609375 48.6875 47.4375 45.34375 
Q 49.265625 42 49.265625 33.0625 
L 49.125 17.046875 
Q 49.125 10.203125 49.78125 6.953125 
Q 50.4375 3.71875 52.25 0 
L 38.671875 0 
Q 38.140625 1.375 37.359375 4.046875 
Q 37.015625 5.28125 36.859375 5.671875 
Q 33.34375 2.25 29.34375 0.53125 
Q 25.34375 -1.171875 20.796875 -1.171875 
Q 12.796875 -1.171875 8.171875 3.171875 
Q 3.5625 7.515625 3.5625 14.15625 
Q 3.5625 18.5625 5.65625 22 
Q 7.765625 25.4375 11.546875 27.265625 
Q 15.328125 29.109375 22.46875 30.46875 
Q 32.078125 32.28125 35.796875 33.84375 
L 35.796875 35.203125 
Q 35.796875 39.15625 33.84375 40.84375 
Q 31.890625 42.53125 26.46875 42.53125 
Q 22.796875 42.53125 20.75 41.09375 
Q 18.703125 39.65625 17.4375 36.03125 
z
M 35.796875 24.90625 
Q 33.15625 24.03125 27.4375 22.796875 
Q 21.734375 21.578125 19.96875 20.40625 
Q 17.28125 18.5 17.28125 15.578125 
Q 17.28125 12.703125 19.421875 10.59375 
Q 21.578125 8.5 24.90625 8.5 
Q 28.609375 8.5 31.984375 10.9375 
Q 34.46875 12.796875 35.25 15.484375 
Q 35.796875 17.234375 35.796875 22.171875 
z
" id="Arial-BoldMT-61"/>
      <path d="M 20.3125 0 
L 6.59375 0 
L 6.59375 51.859375 
L 19.34375 51.859375 
L 19.34375 44.484375 
Q 22.609375 49.703125 25.21875 51.359375 
Q 27.828125 53.03125 31.15625 53.03125 
Q 35.84375 53.03125 40.1875 50.4375 
L 35.9375 38.484375 
Q 32.46875 40.71875 29.5 40.71875 
Q 26.609375 40.71875 24.609375 39.125 
Q 22.609375 37.546875 21.453125 33.390625 
Q 20.3125 29.25 20.3125 16.015625 
z
" id="Arial-BoldMT-72"/>
     </defs>
     <g transform="translate(230.855823 329.861206)scale(0.1 -0.1)">
      <use xlink:href="#Arial-BoldMT-79"/>
      <use x="55.615234" xlink:href="#Arial-BoldMT-65"/>
      <use x="111.230469" xlink:href="#Arial-BoldMT-61"/>
      <use x="166.845703" xlink:href="#Arial-BoldMT-72"/>
     </g>
    </g>
   </g>
   <g id="matplotlib.axis_2">
    <g id="ytick_1">
     <g id="line2d_4">
      <path clip-path="url(#p200dc0e99b)" d="M 45.932062 306.987797 
L 436.354585 306.987797 
" style="fill:none;stroke:#d4cdcd;stroke-linecap:square;stroke-width:0.3;"/>
     </g>
     <g id="line2d_5">
      <defs>
       <path d="M 0 0 
L -3.5 0 
" id="m10629f01e6" style="stroke:#000000;stroke-width:0.7;"/>
      </defs>
      <g>
       <use style="stroke:#000000;stroke-width:0.7;" x="45.932062" xlink:href="#m10629f01e6" y="306.987797"/>
      </g>
     </g>
     <g id="text_5">
      <!-- 0 -->
      <g transform="translate(35.072771 309.471558)scale(0.0694 -0.0694)">
       <use xlink:href="#ArialMT-30"/>
      </g>
     </g>
    </g>
    <g id="ytick_2">
     <g id="line2d_6">
      <path clip-path="url(#p200dc0e99b)" d="M 45.932062 262.929363 
L 436.354585 262.929363 
" style="fill:none;stroke:#d4cdcd;stroke-linecap:square;stroke-width:0.3;"/>
     </g>
     <g id="line2d_7">
      <g>
       <use style="stroke:#000000;stroke-width:0.7;" x="45.932062" xlink:href="#m10629f01e6" y="262.929363"/>
      </g>
     </g>
     <g id="text_6">
      <!-- 20 -->
      <g transform="translate(31.21348 265.413124)scale(0.0694 -0.0694)">
       <use xlink:href="#ArialMT-32"/>
       <use x="55.615234" xlink:href="#ArialMT-30"/>
      </g>
     </g>
    </g>
    <g id="ytick_3">
     <g id="line2d_8">
      <path clip-path="url(#p200dc0e99b)" d="M 45.932062 218.870929 
L 436.354585 218.870929 
" style="fill:none;stroke:#d4cdcd;stroke-linecap:square;stroke-width:0.3;"/>
     </g>
     <g id="line2d_9">
      <g>
       <use style="stroke:#000000;stroke-width:0.7;" x="45.932062" xlink:href="#m10629f01e6" y="218.870929"/>
      </g>
     </g>
     <g id="text_7">
      <!-- 40 -->
      <defs>
       <path d="M 32.328125 0 
L 32.328125 17.140625 
L 1.265625 17.140625 
L 1.265625 25.203125 
L 33.9375 71.578125 
L 41.109375 71.578125 
L 41.109375 25.203125 
L 50.78125 25.203125 
L 50.78125 17.140625 
L 41.109375 17.140625 
L 41.109375 0 
z
M 32.328125 25.203125 
L 32.328125 57.46875 
L 9.90625 25.203125 
z
" id="ArialMT-34"/>
      </defs>
      <g transform="translate(31.21348 221.35469)scale(0.0694 -0.0694)">
       <use xlink:href="#ArialMT-34"/>
       <use x="55.615234" xlink:href="#ArialMT-30"/>
      </g>
     </g>
    </g>
    <g id="ytick_4">
     <g id="line2d_10">
      <path clip-path="url(#p200dc0e99b)" d="M 45.932062 174.812495 
L 436.354585 174.812495 
" style="fill:none;stroke:#d4cdcd;stroke-linecap:square;stroke-width:0.3;"/>
     </g>
     <g id="line2d_11">
      <g>
       <use style="stroke:#000000;stroke-width:0.7;" x="45.932062" xlink:href="#m10629f01e6" y="174.812495"/>
      </g>
     </g>
     <g id="text_8">
      <!-- 60 -->
      <g transform="translate(31.21348 177.296256)scale(0.0694 -0.0694)">
       <use xlink:href="#ArialMT-36"/>
       <use x="55.615234" xlink:href="#ArialMT-30"/>
      </g>
     </g>
    </g>
    <g id="ytick_5">
     <g id="line2d_12">
      <path clip-path="url(#p200dc0e99b)" d="M 45.932062 130.754062 
L 436.354585 130.754062 
" style="fill:none;stroke:#d4cdcd;stroke-linecap:square;stroke-width:0.3;"/>
     </g>
     <g id="line2d_13">
      <g>
       <use style="stroke:#000000;stroke-width:0.7;" x="45.932062" xlink:href="#m10629f01e6" y="130.754062"/>
      </g>
     </g>
     <g id="text_9">
      <!-- 80 -->
      <defs>
       <path d="M 17.671875 38.8125 
Q 12.203125 40.828125 9.5625 44.53125 
Q 6.9375 48.25 6.9375 53.421875 
Q 6.9375 61.234375 12.546875 66.546875 
Q 18.171875 71.875 27.484375 71.875 
Q 36.859375 71.875 42.578125 66.421875 
Q 48.296875 60.984375 48.296875 53.171875 
Q 48.296875 48.1875 45.671875 44.5 
Q 43.0625 40.828125 37.75 38.8125 
Q 44.34375 36.671875 47.78125 31.875 
Q 51.21875 27.09375 51.21875 20.453125 
Q 51.21875 11.28125 44.71875 5.03125 
Q 38.234375 -1.21875 27.640625 -1.21875 
Q 17.046875 -1.21875 10.546875 5.046875 
Q 4.046875 11.328125 4.046875 20.703125 
Q 4.046875 27.6875 7.59375 32.390625 
Q 11.140625 37.109375 17.671875 38.8125 
z
M 15.921875 53.71875 
Q 15.921875 48.640625 19.1875 45.40625 
Q 22.46875 42.1875 27.6875 42.1875 
Q 32.765625 42.1875 36.015625 45.375 
Q 39.265625 48.578125 39.265625 53.21875 
Q 39.265625 58.0625 35.90625 61.359375 
Q 32.5625 64.65625 27.59375 64.65625 
Q 22.5625 64.65625 19.234375 61.421875 
Q 15.921875 58.203125 15.921875 53.71875 
z
M 13.09375 20.65625 
Q 13.09375 16.890625 14.875 13.375 
Q 16.65625 9.859375 20.171875 7.921875 
Q 23.6875 6 27.734375 6 
Q 34.03125 6 38.125 10.046875 
Q 42.234375 14.109375 42.234375 20.359375 
Q 42.234375 26.703125 38.015625 30.859375 
Q 33.796875 35.015625 27.4375 35.015625 
Q 21.234375 35.015625 17.15625 30.90625 
Q 13.09375 26.8125 13.09375 20.65625 
z
" id="ArialMT-38"/>
      </defs>
      <g transform="translate(31.21348 133.237823)scale(0.0694 -0.0694)">
       <use xlink:href="#ArialMT-38"/>
       <use x="55.615234" xlink:href="#ArialMT-30"/>
      </g>
     </g>
    </g>
    <g id="ytick_6">
     <g id="line2d_14">
      <path clip-path="url(#p200dc0e99b)" d="M 45.932062 86.695628 
L 436.354585 86.695628 
" style="fill:none;stroke:#d4cdcd;stroke-linecap:square;stroke-width:0.3;"/>
     </g>
     <g id="line2d_15">
      <g>
       <use style="stroke:#000000;stroke-width:0.7;" x="45.932062" xlink:href="#m10629f01e6" y="86.695628"/>
      </g>
     </g>
     <g id="text_10">
      <!-- 100 -->
      <g transform="translate(27.35419 89.179389)scale(0.0694 -0.0694)">
       <use xlink:href="#ArialMT-31"/>
       <use x="55.615234" xlink:href="#ArialMT-30"/>
       <use x="111.230469" xlink:href="#ArialMT-30"/>
      </g>
     </g>
    </g>
    <g id="ytick_7">
     <g id="line2d_16">
      <path clip-path="url(#p200dc0e99b)" d="M 45.932062 42.637194 
L 436.354585 42.637194 
" style="fill:none;stroke:#d4cdcd;stroke-linecap:square;stroke-width:0.3;"/>
     </g>
     <g id="line2d_17">
      <g>
       <use style="stroke:#000000;stroke-width:0.7;" x="45.932062" xlink:href="#m10629f01e6" y="42.637194"/>
      </g>
     </g>
     <g id="text_11">
      <!-- 120 -->
      <g transform="translate(27.35419 45.120955)scale(0.0694 -0.0694)">
       <use xlink:href="#ArialMT-31"/>
       <use x="55.615234" xlink:href="#ArialMT-32"/>
       <use x="111.230469" xlink:href="#ArialMT-30"/>
      </g>
     </g>
    </g>
    <g id="text_12">
     <!-- Parcel size [Acres] -->
     <defs>
      <path d="M 7.28125 0 
L 7.28125 71.578125 
L 30.46875 71.578125 
Q 43.65625 71.578125 47.65625 70.515625 
Q 53.8125 68.890625 57.953125 63.5 
Q 62.109375 58.109375 62.109375 49.5625 
Q 62.109375 42.96875 59.71875 38.46875 
Q 57.328125 33.984375 53.640625 31.421875 
Q 49.953125 28.859375 46.140625 28.03125 
Q 40.96875 27 31.15625 27 
L 21.734375 27 
L 21.734375 0 
z
M 21.734375 59.46875 
L 21.734375 39.15625 
L 29.640625 39.15625 
Q 38.1875 39.15625 41.0625 40.28125 
Q 43.953125 41.40625 45.578125 43.796875 
Q 47.21875 46.1875 47.21875 49.359375 
Q 47.21875 53.265625 44.921875 55.796875 
Q 42.625 58.34375 39.109375 58.984375 
Q 36.53125 59.46875 28.71875 59.46875 
z
" id="Arial-BoldMT-50"/>
      <path d="M 52.390625 36.53125 
L 38.875 34.078125 
Q 38.1875 38.140625 35.765625 40.1875 
Q 33.34375 42.234375 29.5 42.234375 
Q 24.359375 42.234375 21.3125 38.6875 
Q 18.265625 35.15625 18.265625 26.859375 
Q 18.265625 17.625 21.359375 13.8125 
Q 24.46875 10.015625 29.6875 10.015625 
Q 33.59375 10.015625 36.078125 12.234375 
Q 38.578125 14.453125 39.59375 19.875 
L 53.078125 17.578125 
Q 50.984375 8.296875 45.015625 3.5625 
Q 39.0625 -1.171875 29.046875 -1.171875 
Q 17.671875 -1.171875 10.90625 6 
Q 4.15625 13.1875 4.15625 25.875 
Q 4.15625 38.71875 10.9375 45.875 
Q 17.71875 53.03125 29.296875 53.03125 
Q 38.765625 53.03125 44.359375 48.953125 
Q 49.953125 44.875 52.390625 36.53125 
z
" id="Arial-BoldMT-63"/>
      <path d="M 7.171875 0 
L 7.171875 71.578125 
L 20.90625 71.578125 
L 20.90625 0 
z
" id="Arial-BoldMT-6c"/>
      <path id="Arial-BoldMT-20"/>
      <path d="M 2.34375 14.796875 
L 16.109375 16.890625 
Q 17 12.890625 19.671875 10.8125 
Q 22.359375 8.734375 27.203125 8.734375 
Q 32.515625 8.734375 35.203125 10.6875 
Q 37.015625 12.0625 37.015625 14.359375 
Q 37.015625 15.921875 36.03125 16.9375 
Q 35.015625 17.921875 31.453125 18.75 
Q 14.84375 22.40625 10.40625 25.4375 
Q 4.25 29.640625 4.25 37.109375 
Q 4.25 43.84375 9.5625 48.4375 
Q 14.890625 53.03125 26.078125 53.03125 
Q 36.71875 53.03125 41.890625 49.5625 
Q 47.078125 46.09375 49.03125 39.3125 
L 36.078125 36.921875 
Q 35.25 39.9375 32.921875 41.546875 
Q 30.609375 43.171875 26.3125 43.171875 
Q 20.90625 43.171875 18.5625 41.65625 
Q 17 40.578125 17 38.875 
Q 17 37.40625 18.359375 36.375 
Q 20.21875 35.015625 31.171875 32.515625 
Q 42.140625 30.03125 46.484375 26.421875 
Q 50.78125 22.75 50.78125 16.21875 
Q 50.78125 9.078125 44.828125 3.953125 
Q 38.875 -1.171875 27.203125 -1.171875 
Q 16.609375 -1.171875 10.421875 3.125 
Q 4.25 7.421875 2.34375 14.796875 
z
" id="Arial-BoldMT-73"/>
      <path d="M 7.171875 58.890625 
L 7.171875 71.578125 
L 20.90625 71.578125 
L 20.90625 58.890625 
z
M 7.171875 0 
L 7.171875 51.859375 
L 20.90625 51.859375 
L 20.90625 0 
z
" id="Arial-BoldMT-69"/>
      <path d="M 1.65625 0 
L 1.65625 10.6875 
L 21.09375 33.015625 
Q 25.875 38.484375 28.171875 40.765625 
Q 25.78125 40.625 21.875 40.578125 
L 3.5625 40.484375 
L 3.5625 51.859375 
L 46.4375 51.859375 
L 46.4375 42.140625 
L 26.609375 19.28125 
L 19.625 11.71875 
Q 25.34375 12.0625 26.703125 12.0625 
L 47.953125 12.0625 
L 47.953125 0 
z
" id="Arial-BoldMT-7a"/>
      <path d="M 7.125 -20.171875 
L 7.125 71.578125 
L 31.453125 71.578125 
L 31.453125 60.796875 
L 20.171875 60.796875 
L 20.171875 -9.375 
L 31.453125 -9.375 
L 31.453125 -20.171875 
z
" id="Arial-BoldMT-5b"/>
      <path d="M 71.828125 0 
L 56.109375 0 
L 49.859375 16.265625 
L 21.234375 16.265625 
L 15.328125 0 
L 0 0 
L 27.875 71.578125 
L 43.171875 71.578125 
z
M 45.21875 28.328125 
L 35.359375 54.890625 
L 25.6875 28.328125 
z
" id="Arial-BoldMT-41"/>
      <path d="M 26.171875 71.578125 
L 26.171875 -20.171875 
L 1.859375 -20.171875 
L 1.859375 -9.375 
L 13.140625 -9.375 
L 13.140625 60.890625 
L 1.859375 60.890625 
L 1.859375 71.578125 
z
" id="Arial-BoldMT-5d"/>
     </defs>
     <g transform="translate(19.337002 219.280464)rotate(-90)scale(0.1 -0.1)">
      <use xlink:href="#Arial-BoldMT-50"/>
      <use x="66.699219" xlink:href="#Arial-BoldMT-61"/>
      <use x="122.314453" xlink:href="#Arial-BoldMT-72"/>
      <use x="161.230469" xlink:href="#Arial-BoldMT-63"/>
      <use x="216.845703" xlink:href="#Arial-BoldMT-65"/>
      <use x="272.460938" xlink:href="#Arial-BoldMT-6c"/>
      <use x="300.244141" xlink:href="#Arial-BoldMT-20"/>
      <use x="328.027344" xlink:href="#Arial-BoldMT-73"/>
      <use x="383.642578" xlink:href="#Arial-BoldMT-69"/>
      <use x="411.425781" xlink:href="#Arial-BoldMT-7a"/>
      <use x="461.425781" xlink:href="#Arial-BoldMT-65"/>
      <use x="517.041016" xlink:href="#Arial-BoldMT-20"/>
      <use x="544.824219" xlink:href="#Arial-BoldMT-5b"/>
      <use x="578.125" xlink:href="#Arial-BoldMT-41"/>
      <use x="650.341797" xlink:href="#Arial-BoldMT-63"/>
      <use x="705.957031" xlink:href="#Arial-BoldMT-72"/>
      <use x="744.873047" xlink:href="#Arial-BoldMT-65"/>
      <use x="800.488281" xlink:href="#Arial-BoldMT-73"/>
      <use x="856.103516" xlink:href="#Arial-BoldMT-5d"/>
     </g>
    </g>
   </g>
   <g id="line2d_18">
    <path clip-path="url(#p200dc0e99b)" d="M 111.002482 287.340379 
L 111.002482 306.987797 
" style="fill:none;stroke:#000000;stroke-linecap:square;"/>
   </g>
   <g id="line2d_19">
    <path clip-path="url(#p200dc0e99b)" d="M 111.002482 93.302851 
L 111.002482 -1 
" style="fill:none;stroke:#000000;stroke-linecap:square;"/>
   </g>
   <g id="line2d_20">
    <path clip-path="url(#p200dc0e99b)" d="M 101.241919 306.987797 
L 120.763045 306.987797 
" style="fill:none;stroke:#000000;stroke-linecap:square;"/>
   </g>
   <g id="line2d_21">
    <path clip-path="url(#p200dc0e99b)" style="fill:none;stroke:#000000;stroke-linecap:square;"/>
   </g>
   <g id="line2d_22">
    <defs>
     <path d="M 0 1 
C 0.265203 1 0.51958 0.894634 0.707107 0.707107 
C 0.894634 0.51958 1 0.265203 1 0 
C 1 -0.265203 0.894634 -0.51958 0.707107 -0.707107 
C 0.51958 -0.894634 0.265203 -1 0 -1 
C -0.265203 -1 -0.51958 -0.894634 -0.707107 -0.707107 
C -0.894634 -0.51958 -1 -0.265203 -1 0 
C -1 0.265203 -0.894634 0.51958 -0.707107 0.707107 
C -0.51958 0.894634 -0.265203 1 0 1 
z
" id="md8a7210af8" style="stroke:#000000;"/>
    </defs>
    <g clip-path="url(#p200dc0e99b)"/>
   </g>
   <g id="line2d_23">
    <path clip-path="url(#p200dc0e99b)" d="M 241.143323 288.279264 
L 241.143323 306.987797 
" style="fill:none;stroke:#000000;stroke-linecap:square;"/>
   </g>
   <g id="line2d_24">
    <path clip-path="url(#p200dc0e99b)" d="M 241.143323 91.431689 
L 241.143323 -1 
" style="fill:none;stroke:#000000;stroke-linecap:square;"/>
   </g>
   <g id="line2d_25">
    <path clip-path="url(#p200dc0e99b)" d="M 231.38276 306.987797 
L 250.903886 306.987797 
" style="fill:none;stroke:#000000;stroke-linecap:square;"/>
   </g>
   <g id="line2d_26">
    <path clip-path="url(#p200dc0e99b)" style="fill:none;stroke:#000000;stroke-linecap:square;"/>
   </g>
   <g id="line2d_27">
    <g clip-path="url(#p200dc0e99b)"/>
   </g>
   <g id="line2d_28">
    <path clip-path="url(#p200dc0e99b)" d="M 371.284165 288.501979 
L 371.284165 306.987797 
" style="fill:none;stroke:#000000;stroke-linecap:square;"/>
   </g>
   <g id="line2d_29">
    <path clip-path="url(#p200dc0e99b)" d="M 371.284165 91.61299 
L 371.284165 -1 
" style="fill:none;stroke:#000000;stroke-linecap:square;"/>
   </g>
   <g id="line2d_30">
    <path clip-path="url(#p200dc0e99b)" d="M 361.523602 306.987797 
L 381.044728 306.987797 
" style="fill:none;stroke:#000000;stroke-linecap:square;"/>
   </g>
   <g id="line2d_31">
    <path clip-path="url(#p200dc0e99b)" style="fill:none;stroke:#000000;stroke-linecap:square;"/>
   </g>
   <g id="line2d_32">
    <g clip-path="url(#p200dc0e99b)"/>
   </g>
   <g id="patch_3">
    <path clip-path="url(#p200dc0e99b)" d="M 91.481356 287.340379 
L 130.523608 287.340379 
L 130.523608 93.302851 
L 91.481356 93.302851 
L 91.481356 287.340379 
z
" style="fill:#003781;stroke:#000000;stroke-linejoin:miter;"/>
   </g>
   <g id="patch_4">
    <path clip-path="url(#p200dc0e99b)" d="M 221.622197 288.279264 
L 260.66445 288.279264 
L 260.66445 91.431689 
L 221.622197 91.431689 
L 221.622197 288.279264 
z
" style="fill:#003781;stroke:#000000;stroke-linejoin:miter;"/>
   </g>
   <g id="patch_5">
    <path clip-path="url(#p200dc0e99b)" d="M 351.763038 288.501979 
L 390.805291 288.501979 
L 390.805291 91.61299 
L 351.763038 91.61299 
L 351.763038 288.501979 
z
" style="fill:#003781;stroke:#000000;stroke-linejoin:miter;"/>
   </g>
   <g id="line2d_33">
    <path clip-path="url(#p200dc0e99b)" d="M 91.481356 214.70983 
L 130.523608 214.70983 
" style="fill:none;stroke:#ffffff;stroke-linecap:square;"/>
   </g>
   <g id="line2d_34">
    <path clip-path="url(#p200dc0e99b)" d="M 221.622197 217.727393 
L 260.66445 217.727393 
" style="fill:none;stroke:#ffffff;stroke-linecap:square;"/>
   </g>
   <g id="line2d_35">
    <path clip-path="url(#p200dc0e99b)" d="M 351.763038 222.246466 
L 390.805291 222.246466 
" style="fill:none;stroke:#ffffff;stroke-linecap:square;"/>
   </g>
   <g id="patch_6">
    <path d="M 45.932062 306.987797 
L 45.932062 42.637194 
" style="fill:none;stroke:#000000;stroke-linecap:square;stroke-linejoin:miter;stroke-width:0.5;"/>
   </g>
   <g id="patch_7">
    <path d="M 45.932062 306.987797 
L 436.354585 306.987797 
" style="fill:none;stroke:#000000;stroke-linecap:square;stroke-linejoin:miter;stroke-width:0.5;"/>
   </g>
   <g id="text_13">
    <!-- Mittel: -->
    <defs>
     <path d="M 7.078125 0 
L 7.078125 71.578125 
L 28.71875 71.578125 
L 41.703125 22.75 
L 54.546875 71.578125 
L 76.21875 71.578125 
L 76.21875 0 
L 62.796875 0 
L 62.796875 56.34375 
L 48.578125 0 
L 34.671875 0 
L 20.515625 56.34375 
L 20.515625 0 
z
" id="Arial-BoldMT-4d"/>
     <path d="M 30.953125 51.859375 
L 30.953125 40.921875 
L 21.578125 40.921875 
L 21.578125 20.015625 
Q 21.578125 13.671875 21.84375 12.625 
Q 22.125 11.578125 23.078125 10.890625 
Q 24.03125 10.203125 25.390625 10.203125 
Q 27.296875 10.203125 30.90625 11.53125 
L 32.078125 0.875 
Q 27.296875 -1.171875 21.234375 -1.171875 
Q 17.53125 -1.171875 14.546875 0.0625 
Q 11.578125 1.3125 10.1875 3.296875 
Q 8.796875 5.28125 8.25 8.640625 
Q 7.8125 11.03125 7.8125 18.3125 
L 7.8125 40.921875 
L 1.515625 40.921875 
L 1.515625 51.859375 
L 7.8125 51.859375 
L 7.8125 62.15625 
L 21.578125 70.171875 
L 21.578125 51.859375 
z
" id="Arial-BoldMT-74"/>
     <path d="M 9.8125 38.140625 
L 9.8125 51.859375 
L 23.53125 51.859375 
L 23.53125 38.140625 
z
M 9.8125 0 
L 9.8125 13.71875 
L 23.53125 13.71875 
L 23.53125 0 
z
" id="Arial-BoldMT-3a"/>
    </defs>
    <g transform="translate(102.480778 8.753469)scale(0.0579 -0.0579)">
     <use xlink:href="#Arial-BoldMT-4d"/>
     <use x="83.300781" xlink:href="#Arial-BoldMT-69"/>
     <use x="111.083984" xlink:href="#Arial-BoldMT-74"/>
     <use x="144.384766" xlink:href="#Arial-BoldMT-74"/>
     <use x="177.685547" xlink:href="#Arial-BoldMT-65"/>
     <use x="233.300781" xlink:href="#Arial-BoldMT-6c"/>
     <use x="261.083984" xlink:href="#Arial-BoldMT-3a"/>
    </g>
    <!-- 67,3 -->
    <defs>
     <path d="M 50.734375 54.046875 
L 37.453125 52.59375 
Q 36.96875 56.6875 34.90625 58.640625 
Q 32.859375 60.59375 29.59375 60.59375 
Q 25.25 60.59375 22.234375 56.6875 
Q 19.234375 52.78125 18.453125 40.4375 
Q 23.578125 46.484375 31.203125 46.484375 
Q 39.796875 46.484375 45.921875 39.9375 
Q 52.046875 33.40625 52.046875 23.046875 
Q 52.046875 12.0625 45.59375 5.421875 
Q 39.15625 -1.21875 29.046875 -1.21875 
Q 18.21875 -1.21875 11.234375 7.203125 
Q 4.25 15.625 4.25 34.8125 
Q 4.25 54.5 11.515625 63.1875 
Q 18.796875 71.875 30.421875 71.875 
Q 38.578125 71.875 43.921875 67.3125 
Q 49.265625 62.75 50.734375 54.046875 
z
M 19.625 24.125 
Q 19.625 17.4375 22.703125 13.796875 
Q 25.78125 10.15625 29.734375 10.15625 
Q 33.546875 10.15625 36.078125 13.125 
Q 38.625 16.109375 38.625 22.90625 
Q 38.625 29.890625 35.890625 33.125 
Q 33.15625 36.375 29.046875 36.375 
Q 25.09375 36.375 22.359375 33.265625 
Q 19.625 30.171875 19.625 24.125 
z
" id="Arial-BoldMT-36"/>
     <path d="M 4.25 57.859375 
L 4.25 70.609375 
L 51.171875 70.609375 
L 51.171875 60.640625 
Q 45.359375 54.9375 39.34375 44.234375 
Q 33.34375 33.546875 30.1875 21.5 
Q 27.046875 9.46875 27.09375 0 
L 13.875 0 
Q 14.203125 14.84375 19.984375 30.265625 
Q 25.78125 45.703125 35.453125 57.859375 
z
" id="Arial-BoldMT-37"/>
     <path d="M 6.84375 13.71875 
L 20.5625 13.71875 
L 20.5625 3.90625 
Q 20.5625 -2.046875 19.53125 -5.484375 
Q 18.5 -8.9375 15.640625 -11.671875 
Q 12.796875 -14.40625 8.40625 -15.96875 
L 5.71875 -10.296875 
Q 9.859375 -8.9375 11.609375 -6.546875 
Q 13.375 -4.15625 13.484375 0 
L 6.84375 0 
z
" id="Arial-BoldMT-2c"/>
     <path d="M 3.765625 19 
L 17.046875 20.609375 
Q 17.671875 15.53125 20.453125 12.84375 
Q 23.25 10.15625 27.203125 10.15625 
Q 31.453125 10.15625 34.34375 13.375 
Q 37.25 16.609375 37.25 22.078125 
Q 37.25 27.25 34.46875 30.265625 
Q 31.6875 33.296875 27.6875 33.296875 
Q 25.046875 33.296875 21.390625 32.28125 
L 22.90625 43.453125 
Q 28.46875 43.3125 31.390625 45.875 
Q 34.328125 48.4375 34.328125 52.6875 
Q 34.328125 56.296875 32.171875 58.4375 
Q 30.03125 60.59375 26.46875 60.59375 
Q 22.953125 60.59375 20.453125 58.15625 
Q 17.96875 55.71875 17.4375 51.03125 
L 4.78125 53.171875 
Q 6.109375 59.671875 8.765625 63.546875 
Q 11.421875 67.4375 16.1875 69.65625 
Q 20.953125 71.875 26.859375 71.875 
Q 36.96875 71.875 43.0625 65.4375 
Q 48.09375 60.15625 48.09375 53.515625 
Q 48.09375 44.09375 37.796875 38.484375 
Q 43.953125 37.15625 47.625 32.5625 
Q 51.3125 27.984375 51.3125 21.484375 
Q 51.3125 12.0625 44.421875 5.421875 
Q 37.546875 -1.21875 27.296875 -1.21875 
Q 17.578125 -1.21875 11.171875 4.375 
Q 4.78125 9.96875 3.765625 19 
z
" id="Arial-BoldMT-33"/>
    </defs>
    <g transform="translate(105.368541 14.869338)scale(0.0579 -0.0579)">
     <use xlink:href="#Arial-BoldMT-36"/>
     <use x="55.615234" xlink:href="#Arial-BoldMT-37"/>
     <use x="111.230469" xlink:href="#Arial-BoldMT-2c"/>
     <use x="139.013672" xlink:href="#Arial-BoldMT-33"/>
    </g>
    <!-- Median: -->
    <defs>
     <path d="M 54.734375 0 
L 42 0 
L 42 7.625 
Q 38.8125 3.171875 34.484375 1 
Q 30.171875 -1.171875 25.78125 -1.171875 
Q 16.84375 -1.171875 10.46875 6.03125 
Q 4.109375 13.234375 4.109375 26.125 
Q 4.109375 39.3125 10.296875 46.171875 
Q 16.5 53.03125 25.984375 53.03125 
Q 34.671875 53.03125 41.015625 45.796875 
L 41.015625 71.578125 
L 54.734375 71.578125 
z
M 18.109375 27.046875 
Q 18.109375 18.75 20.40625 15.046875 
Q 23.734375 9.671875 29.6875 9.671875 
Q 34.421875 9.671875 37.734375 13.6875 
Q 41.0625 17.71875 41.0625 25.734375 
Q 41.0625 34.671875 37.84375 38.59375 
Q 34.625 42.53125 29.59375 42.53125 
Q 24.703125 42.53125 21.40625 38.640625 
Q 18.109375 34.765625 18.109375 27.046875 
z
" id="Arial-BoldMT-64"/>
     <path d="M 54.34375 0 
L 40.625 0 
L 40.625 26.46875 
Q 40.625 34.859375 39.75 37.328125 
Q 38.875 39.796875 36.890625 41.15625 
Q 34.90625 42.53125 32.125 42.53125 
Q 28.5625 42.53125 25.734375 40.578125 
Q 22.90625 38.625 21.84375 35.390625 
Q 20.796875 32.171875 20.796875 23.484375 
L 20.796875 0 
L 7.078125 0 
L 7.078125 51.859375 
L 19.828125 51.859375 
L 19.828125 44.234375 
Q 26.609375 53.03125 36.921875 53.03125 
Q 41.453125 53.03125 45.203125 51.390625 
Q 48.96875 49.75 50.890625 47.203125 
Q 52.828125 44.671875 53.578125 41.453125 
Q 54.34375 38.234375 54.34375 32.234375 
z
" id="Arial-BoldMT-6e"/>
    </defs>
    <g transform="translate(100.06662 20.985206)scale(0.0579 -0.0579)">
     <use xlink:href="#Arial-BoldMT-4d"/>
     <use x="83.300781" xlink:href="#Arial-BoldMT-65"/>
     <use x="138.916016" xlink:href="#Arial-BoldMT-64"/>
     <use x="200" xlink:href="#Arial-BoldMT-69"/>
     <use x="227.783203" xlink:href="#Arial-BoldMT-61"/>
     <use x="283.398438" xlink:href="#Arial-BoldMT-6e"/>
     <use x="344.482422" xlink:href="#Arial-BoldMT-3a"/>
    </g>
    <!-- 41,9 -->
    <defs>
     <path d="M 31.15625 0 
L 31.15625 14.40625 
L 1.859375 14.40625 
L 1.859375 26.421875 
L 32.90625 71.875 
L 44.4375 71.875 
L 44.4375 26.46875 
L 53.328125 26.46875 
L 53.328125 14.40625 
L 44.4375 14.40625 
L 44.4375 0 
z
M 31.15625 26.46875 
L 31.15625 50.921875 
L 14.703125 26.46875 
z
" id="Arial-BoldMT-34"/>
     <path d="M 39.359375 0 
L 25.640625 0 
L 25.640625 51.703125 
Q 18.109375 44.671875 7.90625 41.3125 
L 7.90625 53.765625 
Q 13.28125 55.515625 19.578125 60.421875 
Q 25.875 65.328125 28.21875 71.875 
L 39.359375 71.875 
z
" id="Arial-BoldMT-31"/>
     <path d="M 4.546875 16.546875 
L 17.828125 18.015625 
Q 18.3125 13.96875 20.359375 12.015625 
Q 22.40625 10.0625 25.78125 10.0625 
Q 30.03125 10.0625 33 13.96875 
Q 35.984375 17.875 36.8125 30.171875 
Q 31.640625 24.171875 23.875 24.171875 
Q 15.4375 24.171875 9.296875 30.6875 
Q 3.171875 37.203125 3.171875 47.65625 
Q 3.171875 58.546875 9.640625 65.203125 
Q 16.109375 71.875 26.125 71.875 
Q 37.015625 71.875 44 63.453125 
Q 50.984375 55.03125 50.984375 35.75 
Q 50.984375 16.109375 43.703125 7.421875 
Q 36.421875 -1.265625 24.75 -1.265625 
Q 16.359375 -1.265625 11.171875 3.203125 
Q 6 7.671875 4.546875 16.546875 
z
M 35.59375 46.53125 
Q 35.59375 53.171875 32.546875 56.828125 
Q 29.5 60.5 25.484375 60.5 
Q 21.6875 60.5 19.171875 57.5 
Q 16.65625 54.5 16.65625 47.65625 
Q 16.65625 40.71875 19.390625 37.46875 
Q 22.125 34.234375 26.21875 34.234375 
Q 30.171875 34.234375 32.875 37.359375 
Q 35.59375 40.484375 35.59375 46.53125 
z
" id="Arial-BoldMT-39"/>
    </defs>
    <g transform="translate(105.368541 27.101075)scale(0.0579 -0.0579)">
     <use xlink:href="#Arial-BoldMT-34"/>
     <use x="55.615234" xlink:href="#Arial-BoldMT-31"/>
     <use x="111.230469" xlink:href="#Arial-BoldMT-2c"/>
     <use x="139.013672" xlink:href="#Arial-BoldMT-39"/>
    </g>
    <!-- n: -->
    <g transform="translate(108.270326 33.216943)scale(0.0579 -0.0579)">
     <use xlink:href="#Arial-BoldMT-6e"/>
     <use x="61.083984" xlink:href="#Arial-BoldMT-3a"/>
    </g>
    <!-- 14750 -->
    <defs>
     <path d="M 4.4375 18.40625 
L 18.109375 19.828125 
Q 18.703125 15.1875 21.578125 12.46875 
Q 24.46875 9.765625 28.21875 9.765625 
Q 32.515625 9.765625 35.5 13.25 
Q 38.484375 16.75 38.484375 23.78125 
Q 38.484375 30.375 35.515625 33.671875 
Q 32.5625 36.96875 27.828125 36.96875 
Q 21.921875 36.96875 17.234375 31.734375 
L 6.109375 33.34375 
L 13.140625 70.609375 
L 49.421875 70.609375 
L 49.421875 57.765625 
L 23.53125 57.765625 
L 21.390625 45.609375 
Q 25.984375 47.90625 30.765625 47.90625 
Q 39.890625 47.90625 46.234375 41.265625 
Q 52.59375 34.625 52.59375 24.03125 
Q 52.59375 15.1875 47.46875 8.25 
Q 40.484375 -1.21875 28.078125 -1.21875 
Q 18.171875 -1.21875 11.921875 4.09375 
Q 5.671875 9.421875 4.4375 18.40625 
z
" id="Arial-BoldMT-35"/>
     <path d="M 27.4375 71.875 
Q 37.84375 71.875 43.703125 64.453125 
Q 50.6875 55.671875 50.6875 35.296875 
Q 50.6875 14.984375 43.65625 6.109375 
Q 37.84375 -1.21875 27.4375 -1.21875 
Q 17 -1.21875 10.59375 6.8125 
Q 4.203125 14.84375 4.203125 35.453125 
Q 4.203125 55.671875 11.234375 64.546875 
Q 17.046875 71.875 27.4375 71.875 
z
M 27.4375 60.5 
Q 24.953125 60.5 23 58.90625 
Q 21.046875 57.328125 19.96875 53.21875 
Q 18.5625 47.90625 18.5625 35.296875 
Q 18.5625 22.703125 19.828125 17.984375 
Q 21.09375 13.28125 23.015625 11.71875 
Q 24.953125 10.15625 27.4375 10.15625 
Q 29.9375 10.15625 31.890625 11.734375 
Q 33.84375 13.328125 34.90625 17.4375 
Q 36.328125 22.703125 36.328125 35.296875 
Q 36.328125 47.90625 35.0625 52.609375 
Q 33.796875 57.328125 31.859375 58.90625 
Q 29.9375 60.5 27.4375 60.5 
z
" id="Arial-BoldMT-30"/>
    </defs>
    <g transform="translate(102.953025 39.332811)scale(0.0579 -0.0579)">
     <use xlink:href="#Arial-BoldMT-31"/>
     <use x="55.615234" xlink:href="#Arial-BoldMT-34"/>
     <use x="111.230469" xlink:href="#Arial-BoldMT-37"/>
     <use x="166.845703" xlink:href="#Arial-BoldMT-35"/>
     <use x="222.460938" xlink:href="#Arial-BoldMT-30"/>
    </g>
   </g>
   <g id="text_14">
    <!-- Mittel: -->
    <g transform="translate(232.621619 8.753469)scale(0.0579 -0.0579)">
     <use xlink:href="#Arial-BoldMT-4d"/>
     <use x="83.300781" xlink:href="#Arial-BoldMT-69"/>
     <use x="111.083984" xlink:href="#Arial-BoldMT-74"/>
     <use x="144.384766" xlink:href="#Arial-BoldMT-74"/>
     <use x="177.685547" xlink:href="#Arial-BoldMT-65"/>
     <use x="233.300781" xlink:href="#Arial-BoldMT-6c"/>
     <use x="261.083984" xlink:href="#Arial-BoldMT-3a"/>
    </g>
    <!-- 68,0 -->
    <defs>
     <path d="M 16.015625 38.625 
Q 10.6875 40.875 8.265625 44.796875 
Q 5.859375 48.734375 5.859375 53.421875 
Q 5.859375 61.421875 11.453125 66.640625 
Q 17.046875 71.875 27.34375 71.875 
Q 37.546875 71.875 43.1875 66.640625 
Q 48.828125 61.421875 48.828125 53.421875 
Q 48.828125 48.4375 46.234375 44.546875 
Q 43.65625 40.671875 38.96875 38.625 
Q 44.921875 36.234375 48.015625 31.640625 
Q 51.125 27.046875 51.125 21.046875 
Q 51.125 11.140625 44.796875 4.9375 
Q 38.484375 -1.265625 27.984375 -1.265625 
Q 18.21875 -1.265625 11.71875 3.859375 
Q 4.046875 9.90625 4.046875 20.453125 
Q 4.046875 26.265625 6.921875 31.125 
Q 9.8125 35.984375 16.015625 38.625 
z
M 18.84375 52.4375 
Q 18.84375 48.34375 21.15625 46.046875 
Q 23.484375 43.75 27.34375 43.75 
Q 31.25 43.75 33.59375 46.0625 
Q 35.9375 48.390625 35.9375 52.484375 
Q 35.9375 56.34375 33.609375 58.65625 
Q 31.296875 60.984375 27.484375 60.984375 
Q 23.53125 60.984375 21.1875 58.640625 
Q 18.84375 56.296875 18.84375 52.4375 
z
M 17.578125 21.78125 
Q 17.578125 16.109375 20.484375 12.9375 
Q 23.390625 9.765625 27.734375 9.765625 
Q 31.984375 9.765625 34.765625 12.8125 
Q 37.546875 15.875 37.546875 21.625 
Q 37.546875 26.65625 34.71875 29.703125 
Q 31.890625 32.765625 27.546875 32.765625 
Q 22.515625 32.765625 20.046875 29.296875 
Q 17.578125 25.828125 17.578125 21.78125 
z
" id="Arial-BoldMT-38"/>
    </defs>
    <g transform="translate(235.509382 14.869338)scale(0.0579 -0.0579)">
     <use xlink:href="#Arial-BoldMT-36"/>
     <use x="55.615234" xlink:href="#Arial-BoldMT-38"/>
     <use x="111.230469" xlink:href="#Arial-BoldMT-2c"/>
     <use x="139.013672" xlink:href="#Arial-BoldMT-30"/>
    </g>
    <!-- Median: -->
    <g transform="translate(230.207461 20.985206)scale(0.0579 -0.0579)">
     <use xlink:href="#Arial-BoldMT-4d"/>
     <use x="83.300781" xlink:href="#Arial-BoldMT-65"/>
     <use x="138.916016" xlink:href="#Arial-BoldMT-64"/>
     <use x="200" xlink:href="#Arial-BoldMT-69"/>
     <use x="227.783203" xlink:href="#Arial-BoldMT-61"/>
     <use x="283.398438" xlink:href="#Arial-BoldMT-6e"/>
     <use x="344.482422" xlink:href="#Arial-BoldMT-3a"/>
    </g>
    <!-- 40,5 -->
    <g transform="translate(235.509382 27.101075)scale(0.0579 -0.0579)">
     <use xlink:href="#Arial-BoldMT-34"/>
     <use x="55.615234" xlink:href="#Arial-BoldMT-30"/>
     <use x="111.230469" xlink:href="#Arial-BoldMT-2c"/>
     <use x="139.013672" xlink:href="#Arial-BoldMT-35"/>
    </g>
    <!-- n: -->
    <g transform="translate(238.411167 33.216943)scale(0.0579 -0.0579)">
     <use xlink:href="#Arial-BoldMT-6e"/>
     <use x="61.083984" xlink:href="#Arial-BoldMT-3a"/>
    </g>
    <!-- 14550 -->
    <g transform="translate(233.093866 39.332811)scale(0.0579 -0.0579)">
     <use xlink:href="#Arial-BoldMT-31"/>
     <use x="55.615234" xlink:href="#Arial-BoldMT-34"/>
     <use x="111.230469" xlink:href="#Arial-BoldMT-35"/>
     <use x="166.845703" xlink:href="#Arial-BoldMT-35"/>
     <use x="222.460938" xlink:href="#Arial-BoldMT-30"/>
    </g>
   </g>
   <g id="text_15">
    <!-- Mittel: -->
    <g transform="translate(362.762461 8.753469)scale(0.0579 -0.0579)">
     <use xlink:href="#Arial-BoldMT-4d"/>
     <use x="83.300781" xlink:href="#Arial-BoldMT-69"/>
     <use x="111.083984" xlink:href="#Arial-BoldMT-74"/>
     <use x="144.384766" xlink:href="#Arial-BoldMT-74"/>
     <use x="177.685547" xlink:href="#Arial-BoldMT-65"/>
     <use x="233.300781" xlink:href="#Arial-BoldMT-6c"/>
     <use x="261.083984" xlink:href="#Arial-BoldMT-3a"/>
    </g>
    <!-- 68,0 -->
    <g transform="translate(365.650223 14.869338)scale(0.0579 -0.0579)">
     <use xlink:href="#Arial-BoldMT-36"/>
     <use x="55.615234" xlink:href="#Arial-BoldMT-38"/>
     <use x="111.230469" xlink:href="#Arial-BoldMT-2c"/>
     <use x="139.013672" xlink:href="#Arial-BoldMT-30"/>
    </g>
    <!-- Median: -->
    <g transform="translate(360.348302 20.985206)scale(0.0579 -0.0579)">
     <use xlink:href="#Arial-BoldMT-4d"/>
     <use x="83.300781" xlink:href="#Arial-BoldMT-65"/>
     <use x="138.916016" xlink:href="#Arial-BoldMT-64"/>
     <use x="200" xlink:href="#Arial-BoldMT-69"/>
     <use x="227.783203" xlink:href="#Arial-BoldMT-61"/>
     <use x="283.398438" xlink:href="#Arial-BoldMT-6e"/>
     <use x="344.482422" xlink:href="#Arial-BoldMT-3a"/>
    </g>
    <!-- 38,5 -->
    <g transform="translate(365.650223 27.101075)scale(0.0579 -0.0579)">
     <use xlink:href="#Arial-BoldMT-33"/>
     <use x="55.615234" xlink:href="#Arial-BoldMT-38"/>
     <use x="111.230469" xlink:href="#Arial-BoldMT-2c"/>
     <use x="139.013672" xlink:href="#Arial-BoldMT-35"/>
    </g>
    <!-- n: -->
    <g transform="translate(368.552008 33.216943)scale(0.0579 -0.0579)">
     <use xlink:href="#Arial-BoldMT-6e"/>
     <use x="61.083984" xlink:href="#Arial-BoldMT-3a"/>
    </g>
    <!-- 14505 -->
    <g transform="translate(363.234708 39.332811)scale(0.0579 -0.0579)">
     <use xlink:href="#Arial-BoldMT-31"/>
     <use x="55.615234" xlink:href="#Arial-BoldMT-34"/>
     <use x="111.230469" xlink:href="#Arial-BoldMT-35"/>
     <use x="166.845703" xlink:href="#Arial-BoldMT-30"/>
     <use x="222.460938" xlink:href="#Arial-BoldMT-35"/>
    </g>
   </g>
  </g>
 </g>
 <defs>
  <clipPath id="p200dc0e99b">
   <rect height="264.350603" width="390.422524" x="45.932062" y="42.637194"/>
  </clipPath>
 </defs>
</svg>
